<mxfile host="app.diagrams.net" agent="Mozilla/5.0 (Macintosh; Intel Mac OS X 10_15_7) AppleWebKit/537.36 (KHTML, like Gecko) Chrome/131.0.0.0 Safari/537.36" version="25.0.3">
  <diagram id="C5RBs43oDa-KdzZeNtuy" name="Page-1">
    <mxGraphModel dx="5470" dy="2460" grid="1" gridSize="10" guides="1" tooltips="1" connect="1" arrows="1" fold="1" page="1" pageScale="1" pageWidth="827" pageHeight="1169" math="0" shadow="0">
      <root>
        <mxCell id="WIyWlLk6GJQsqaUBKTNV-0" />
        <mxCell id="WIyWlLk6GJQsqaUBKTNV-1" parent="WIyWlLk6GJQsqaUBKTNV-0" />
        <mxCell id="MUtRLJ9FbJs_X8TziB0Y-0" value="GameWrapper" style="swimlane;fontStyle=1;align=center;verticalAlign=top;childLayout=stackLayout;horizontal=1;startSize=26;horizontalStack=0;resizeParent=1;resizeParentMax=0;resizeLast=0;collapsible=1;marginBottom=0;whiteSpace=wrap;html=1;" parent="WIyWlLk6GJQsqaUBKTNV-1" vertex="1">
          <mxGeometry y="110" width="160" height="80" as="geometry" />
        </mxCell>
        <mxCell id="MUtRLJ9FbJs_X8TziB0Y-2" value="" style="line;strokeWidth=1;fillColor=none;align=left;verticalAlign=middle;spacingTop=-1;spacingLeft=3;spacingRight=3;rotatable=0;labelPosition=right;points=[];portConstraint=eastwest;strokeColor=inherit;" parent="MUtRLJ9FbJs_X8TziB0Y-0" vertex="1">
          <mxGeometry y="26" width="160" height="8" as="geometry" />
        </mxCell>
        <mxCell id="MUtRLJ9FbJs_X8TziB0Y-3" value="+ runGame(): void" style="text;strokeColor=none;fillColor=none;align=left;verticalAlign=top;spacingLeft=4;spacingRight=4;overflow=hidden;rotatable=0;points=[[0,0.5],[1,0.5]];portConstraint=eastwest;whiteSpace=wrap;html=1;" parent="MUtRLJ9FbJs_X8TziB0Y-0" vertex="1">
          <mxGeometry y="34" width="160" height="46" as="geometry" />
        </mxCell>
        <mxCell id="MUtRLJ9FbJs_X8TziB0Y-47" style="edgeStyle=orthogonalEdgeStyle;rounded=0;orthogonalLoop=1;jettySize=auto;html=1;endArrow=block;endFill=0;" parent="WIyWlLk6GJQsqaUBKTNV-1" source="MUtRLJ9FbJs_X8TziB0Y-12" target="MUtRLJ9FbJs_X8TziB0Y-4" edge="1">
          <mxGeometry relative="1" as="geometry" />
        </mxCell>
        <mxCell id="MUtRLJ9FbJs_X8TziB0Y-54" style="edgeStyle=orthogonalEdgeStyle;rounded=0;orthogonalLoop=1;jettySize=auto;html=1;entryX=0;entryY=0.5;entryDx=0;entryDy=0;endArrow=open;endFill=0;startArrow=diamondThin;startFill=0;" parent="WIyWlLk6GJQsqaUBKTNV-1" source="MUtRLJ9FbJs_X8TziB0Y-4" target="MUtRLJ9FbJs_X8TziB0Y-11" edge="1">
          <mxGeometry relative="1" as="geometry" />
        </mxCell>
        <mxCell id="MUtRLJ9FbJs_X8TziB0Y-4" value="&lt;i&gt;Subject&lt;/i&gt;" style="swimlane;fontStyle=1;align=center;verticalAlign=top;childLayout=stackLayout;horizontal=1;startSize=26;horizontalStack=0;resizeParent=1;resizeParentMax=0;resizeLast=0;collapsible=1;marginBottom=0;whiteSpace=wrap;html=1;" parent="WIyWlLk6GJQsqaUBKTNV-1" vertex="1">
          <mxGeometry x="-240" y="190" width="160" height="94" as="geometry" />
        </mxCell>
        <mxCell id="MUtRLJ9FbJs_X8TziB0Y-6" value="" style="line;strokeWidth=1;fillColor=none;align=left;verticalAlign=middle;spacingTop=-1;spacingLeft=3;spacingRight=3;rotatable=0;labelPosition=right;points=[];portConstraint=eastwest;strokeColor=inherit;" parent="MUtRLJ9FbJs_X8TziB0Y-4" vertex="1">
          <mxGeometry y="26" width="160" height="8" as="geometry" />
        </mxCell>
        <mxCell id="MUtRLJ9FbJs_X8TziB0Y-7" value="+ notifyObservers(): void&lt;div&gt;+ attach(Observer): void&lt;br&gt;+ detach(Observer): void&lt;/div&gt;" style="text;strokeColor=none;fillColor=none;align=left;verticalAlign=top;spacingLeft=4;spacingRight=4;overflow=hidden;rotatable=0;points=[[0,0.5],[1,0.5]];portConstraint=eastwest;whiteSpace=wrap;html=1;" parent="MUtRLJ9FbJs_X8TziB0Y-4" vertex="1">
          <mxGeometry y="34" width="160" height="60" as="geometry" />
        </mxCell>
        <mxCell id="MUtRLJ9FbJs_X8TziB0Y-46" style="edgeStyle=orthogonalEdgeStyle;rounded=0;orthogonalLoop=1;jettySize=auto;html=1;exitX=0.5;exitY=0;exitDx=0;exitDy=0;endArrow=block;endFill=0;" parent="WIyWlLk6GJQsqaUBKTNV-1" source="MUtRLJ9FbJs_X8TziB0Y-16" target="MUtRLJ9FbJs_X8TziB0Y-8" edge="1">
          <mxGeometry relative="1" as="geometry" />
        </mxCell>
        <mxCell id="MUtRLJ9FbJs_X8TziB0Y-8" value="&lt;i&gt;Observer&lt;/i&gt;" style="swimlane;fontStyle=1;align=center;verticalAlign=top;childLayout=stackLayout;horizontal=1;startSize=26;horizontalStack=0;resizeParent=1;resizeParentMax=0;resizeLast=0;collapsible=1;marginBottom=0;whiteSpace=wrap;html=1;" parent="WIyWlLk6GJQsqaUBKTNV-1" vertex="1">
          <mxGeometry x="240" y="190" width="160" height="60" as="geometry" />
        </mxCell>
        <mxCell id="MUtRLJ9FbJs_X8TziB0Y-10" value="" style="line;strokeWidth=1;fillColor=none;align=left;verticalAlign=middle;spacingTop=-1;spacingLeft=3;spacingRight=3;rotatable=0;labelPosition=right;points=[];portConstraint=eastwest;strokeColor=inherit;" parent="MUtRLJ9FbJs_X8TziB0Y-8" vertex="1">
          <mxGeometry y="26" width="160" height="8" as="geometry" />
        </mxCell>
        <mxCell id="MUtRLJ9FbJs_X8TziB0Y-11" value="&lt;i&gt;+ notify(): void&lt;/i&gt;" style="text;strokeColor=none;fillColor=none;align=left;verticalAlign=top;spacingLeft=4;spacingRight=4;overflow=hidden;rotatable=0;points=[[0,0.5],[1,0.5]];portConstraint=eastwest;whiteSpace=wrap;html=1;" parent="MUtRLJ9FbJs_X8TziB0Y-8" vertex="1">
          <mxGeometry y="34" width="160" height="26" as="geometry" />
        </mxCell>
        <mxCell id="MUtRLJ9FbJs_X8TziB0Y-81" style="edgeStyle=orthogonalEdgeStyle;rounded=0;orthogonalLoop=1;jettySize=auto;html=1;exitX=1;exitY=0.5;exitDx=0;exitDy=0;entryX=0.5;entryY=0;entryDx=0;entryDy=0;endArrow=open;endFill=0;startArrow=diamondThin;startFill=1;" parent="WIyWlLk6GJQsqaUBKTNV-1" source="MUtRLJ9FbJs_X8TziB0Y-12" target="MUtRLJ9FbJs_X8TziB0Y-66" edge="1">
          <mxGeometry relative="1" as="geometry">
            <mxPoint x="560" y="410" as="targetPoint" />
          </mxGeometry>
        </mxCell>
        <mxCell id="MUtRLJ9FbJs_X8TziB0Y-82" style="edgeStyle=orthogonalEdgeStyle;rounded=0;orthogonalLoop=1;jettySize=auto;html=1;exitX=1;exitY=0.75;exitDx=0;exitDy=0;entryX=0.5;entryY=0;entryDx=0;entryDy=0;endArrow=open;endFill=0;startArrow=diamondThin;startFill=1;" parent="WIyWlLk6GJQsqaUBKTNV-1" source="MUtRLJ9FbJs_X8TziB0Y-12" target="MUtRLJ9FbJs_X8TziB0Y-58" edge="1">
          <mxGeometry relative="1" as="geometry">
            <mxPoint x="240" y="440" as="targetPoint" />
          </mxGeometry>
        </mxCell>
        <mxCell id="MUtRLJ9FbJs_X8TziB0Y-85" style="edgeStyle=orthogonalEdgeStyle;rounded=0;orthogonalLoop=1;jettySize=auto;html=1;entryX=0.5;entryY=0;entryDx=0;entryDy=0;endArrow=open;endFill=0;startArrow=diamondThin;startFill=1;" parent="WIyWlLk6GJQsqaUBKTNV-1" source="MUtRLJ9FbJs_X8TziB0Y-12" target="MUtRLJ9FbJs_X8TziB0Y-76" edge="1">
          <mxGeometry relative="1" as="geometry">
            <mxPoint x="-100" y="530" as="targetPoint" />
          </mxGeometry>
        </mxCell>
        <mxCell id="MUtRLJ9FbJs_X8TziB0Y-12" value="Game" style="swimlane;fontStyle=1;align=center;verticalAlign=top;childLayout=stackLayout;horizontal=1;startSize=26;horizontalStack=0;resizeParent=1;resizeParentMax=0;resizeLast=0;collapsible=1;marginBottom=0;whiteSpace=wrap;html=1;" parent="WIyWlLk6GJQsqaUBKTNV-1" vertex="1">
          <mxGeometry x="-240" y="350" width="160" height="120" as="geometry" />
        </mxCell>
        <mxCell id="MUtRLJ9FbJs_X8TziB0Y-13" value="- gameState: GameState&lt;br&gt;- currentTurn: Team" style="text;strokeColor=none;fillColor=none;align=left;verticalAlign=top;spacingLeft=4;spacingRight=4;overflow=hidden;rotatable=0;points=[[0,0.5],[1,0.5]];portConstraint=eastwest;whiteSpace=wrap;html=1;" parent="MUtRLJ9FbJs_X8TziB0Y-12" vertex="1">
          <mxGeometry y="26" width="160" height="44" as="geometry" />
        </mxCell>
        <mxCell id="MUtRLJ9FbJs_X8TziB0Y-14" value="" style="line;strokeWidth=1;fillColor=none;align=left;verticalAlign=middle;spacingTop=-1;spacingLeft=3;spacingRight=3;rotatable=0;labelPosition=right;points=[];portConstraint=eastwest;strokeColor=inherit;" parent="MUtRLJ9FbJs_X8TziB0Y-12" vertex="1">
          <mxGeometry y="70" width="160" height="8" as="geometry" />
        </mxCell>
        <mxCell id="MUtRLJ9FbJs_X8TziB0Y-15" value="+ runGame(): void&lt;div&gt;+ getState(): State&lt;/div&gt;" style="text;strokeColor=none;fillColor=none;align=left;verticalAlign=top;spacingLeft=4;spacingRight=4;overflow=hidden;rotatable=0;points=[[0,0.5],[1,0.5]];portConstraint=eastwest;whiteSpace=wrap;html=1;" parent="MUtRLJ9FbJs_X8TziB0Y-12" vertex="1">
          <mxGeometry y="78" width="160" height="42" as="geometry" />
        </mxCell>
        <mxCell id="MUtRLJ9FbJs_X8TziB0Y-16" value="TextObserver" style="swimlane;fontStyle=1;align=center;verticalAlign=top;childLayout=stackLayout;horizontal=1;startSize=26;horizontalStack=0;resizeParent=1;resizeParentMax=0;resizeLast=0;collapsible=1;marginBottom=0;whiteSpace=wrap;html=1;" parent="WIyWlLk6GJQsqaUBKTNV-1" vertex="1">
          <mxGeometry x="240" y="350" width="160" height="34" as="geometry" />
        </mxCell>
        <mxCell id="MUtRLJ9FbJs_X8TziB0Y-18" value="" style="line;strokeWidth=1;fillColor=none;align=left;verticalAlign=middle;spacingTop=-1;spacingLeft=3;spacingRight=3;rotatable=0;labelPosition=right;points=[];portConstraint=eastwest;strokeColor=inherit;" parent="MUtRLJ9FbJs_X8TziB0Y-16" vertex="1">
          <mxGeometry y="26" width="160" height="8" as="geometry" />
        </mxCell>
        <mxCell id="MUtRLJ9FbJs_X8TziB0Y-21" style="edgeStyle=orthogonalEdgeStyle;rounded=0;orthogonalLoop=1;jettySize=auto;html=1;entryX=0.5;entryY=0;entryDx=0;entryDy=0;startArrow=diamondThin;startFill=1;endArrow=open;endFill=0;" parent="WIyWlLk6GJQsqaUBKTNV-1" source="MUtRLJ9FbJs_X8TziB0Y-3" target="MUtRLJ9FbJs_X8TziB0Y-8" edge="1">
          <mxGeometry relative="1" as="geometry" />
        </mxCell>
        <mxCell id="MUtRLJ9FbJs_X8TziB0Y-22" style="edgeStyle=orthogonalEdgeStyle;rounded=0;orthogonalLoop=1;jettySize=auto;html=1;entryX=0.5;entryY=0;entryDx=0;entryDy=0;startArrow=diamondThin;startFill=1;endArrow=open;endFill=0;" parent="WIyWlLk6GJQsqaUBKTNV-1" source="MUtRLJ9FbJs_X8TziB0Y-3" target="MUtRLJ9FbJs_X8TziB0Y-4" edge="1">
          <mxGeometry relative="1" as="geometry" />
        </mxCell>
        <mxCell id="MUtRLJ9FbJs_X8TziB0Y-23" value="1" style="text;html=1;align=center;verticalAlign=middle;resizable=0;points=[];autosize=1;strokeColor=none;fillColor=none;" parent="WIyWlLk6GJQsqaUBKTNV-1" vertex="1">
          <mxGeometry x="-30" y="140" width="30" height="30" as="geometry" />
        </mxCell>
        <mxCell id="MUtRLJ9FbJs_X8TziB0Y-25" value="0..*" style="text;html=1;align=center;verticalAlign=middle;resizable=0;points=[];autosize=1;strokeColor=none;fillColor=none;" parent="WIyWlLk6GJQsqaUBKTNV-1" vertex="1">
          <mxGeometry x="160" y="140" width="40" height="30" as="geometry" />
        </mxCell>
        <mxCell id="MUtRLJ9FbJs_X8TziB0Y-27" value="0..*" style="text;html=1;align=center;verticalAlign=middle;resizable=0;points=[];autosize=1;strokeColor=none;fillColor=none;" parent="WIyWlLk6GJQsqaUBKTNV-1" vertex="1">
          <mxGeometry x="-80" y="210" width="40" height="30" as="geometry" />
        </mxCell>
        <mxCell id="MUtRLJ9FbJs_X8TziB0Y-29" value="1" style="text;html=1;align=center;verticalAlign=middle;resizable=0;points=[];autosize=1;strokeColor=none;fillColor=none;" parent="WIyWlLk6GJQsqaUBKTNV-1" vertex="1">
          <mxGeometry x="210" y="350" width="30" height="30" as="geometry" />
        </mxCell>
        <mxCell id="MUtRLJ9FbJs_X8TziB0Y-45" style="edgeStyle=orthogonalEdgeStyle;rounded=0;orthogonalLoop=1;jettySize=auto;html=1;exitX=0.5;exitY=0;exitDx=0;exitDy=0;endArrow=block;endFill=0;" parent="WIyWlLk6GJQsqaUBKTNV-1" source="MUtRLJ9FbJs_X8TziB0Y-37" target="MUtRLJ9FbJs_X8TziB0Y-33" edge="1">
          <mxGeometry relative="1" as="geometry" />
        </mxCell>
        <mxCell id="MUtRLJ9FbJs_X8TziB0Y-33" value="&lt;i&gt;ChessBoard&lt;/i&gt;" style="swimlane;fontStyle=1;align=center;verticalAlign=top;childLayout=stackLayout;horizontal=1;startSize=26;horizontalStack=0;resizeParent=1;resizeParentMax=0;resizeLast=0;collapsible=1;marginBottom=0;whiteSpace=wrap;html=1;" parent="WIyWlLk6GJQsqaUBKTNV-1" vertex="1">
          <mxGeometry x="-760" y="350" width="440" height="760" as="geometry" />
        </mxCell>
        <mxCell id="MUtRLJ9FbJs_X8TziB0Y-35" value="" style="line;strokeWidth=1;fillColor=none;align=left;verticalAlign=middle;spacingTop=-1;spacingLeft=3;spacingRight=3;rotatable=0;labelPosition=right;points=[];portConstraint=eastwest;strokeColor=inherit;" parent="MUtRLJ9FbJs_X8TziB0Y-33" vertex="1">
          <mxGeometry y="26" width="440" height="8" as="geometry" />
        </mxCell>
        <mxCell id="MUtRLJ9FbJs_X8TziB0Y-36" value="&lt;i&gt;+ clone(): ChessBoard&lt;/i&gt;&lt;div&gt;&lt;i&gt;&lt;br&gt;+ getPieceDataAt(BoardSquare): PieceData?&lt;br&gt;+ getPieceInfoAt(BoardSquare): PieceInfo?&lt;br&gt;&lt;br&gt;+ isSquareOnBoard(BoardSquare: bool&lt;br&gt;+ isSquareEmpty(BoardSquare): bool&lt;br&gt;+ isSquareSameTeam(BoardSquare, Team): bool&lt;br&gt;+ isSquareOtherTeam(BoardSquare, Team): bool&lt;br&gt;+ isSquareAttacked(BoardSquare, Team): bool&lt;br&gt;&lt;br&gt;+ isInCheck(Team): bool&lt;br&gt;+ isInCheckMate(Team): bool&lt;br&gt;+ isInStalemate(Team): bool&lt;br&gt;&lt;br&gt;+ generateAllLegalMovesAtSquare(BoardSquare): vector&amp;lt;BoardMove&amp;gt;&lt;br&gt;+ generateAllLegalMoves(Team): vector&amp;lt;BoardMove&amp;gt;&lt;br&gt;+ generateCheckApplyingMoves(Team): vector&amp;lt;BoardMove&amp;gt;&lt;br&gt;+ generateCapturingMoves(Team): vector&amp;lt;BoardMove&amp;gt;&lt;br&gt;+ generateCaptureAvoidingMoves(Team): vector&amp;lt;BoardMove&amp;gt;&lt;br&gt;+ generateWinningMoves(Team): vector&amp;lt;BoardMove&amp;gt;&lt;br&gt;&lt;br&gt;+ setPosition(BoardSquare, PieceData): void&lt;br&gt;+ clearPosition(BoardSquare): void&lt;br&gt;+ clearBoard(): void&lt;br&gt;&lt;br&gt;+ createBoardMove(BoardSquare, BoardSquare, PieceType?): BoardMove?&amp;nbsp;&lt;br&gt;+ isMoveLegal(BoardMove): bool&lt;br&gt;+ makeMove(BoardMove): void&lt;br&gt;+ undoMove(): bool&lt;br&gt;+ redoMove(): bool&lt;br&gt;&lt;br&gt;+ getCompletedMoves(): vector&amp;lt;BoardMove&amp;gt;&lt;br&gt;&lt;br&gt;+ getTeamOne(): Team&lt;br&gt;+ getTeamTwo(): Team&lt;br&gt;&lt;br&gt;+ getNumRowsOnBoard(): int&lt;br&gt;+ getNumColsOnBoard(): int&lt;br&gt;&lt;br&gt;+ begin(): BoardSquareIterator&lt;br&gt;+ cbegin(): BoardSquareIterator&lt;br&gt;+ end(): BoardSquareIterator&lt;br&gt;+ cend(): BoardSquareIterator&lt;br&gt;&lt;br&gt;+ rbegin(): ReverseBoardSquareIterator&lt;br&gt;+ crbegin(): ReverseBoardSquareIterator&lt;br&gt;+ rend(): ReverseBoardSquareIterator&lt;br&gt;+ crend(): ReverseBoardSquareIterator&lt;br&gt;&lt;/i&gt;&lt;br&gt;&lt;/div&gt;" style="text;strokeColor=none;fillColor=none;align=left;verticalAlign=top;spacingLeft=4;spacingRight=4;overflow=hidden;rotatable=0;points=[[0,0.5],[1,0.5]];portConstraint=eastwest;whiteSpace=wrap;html=1;" parent="MUtRLJ9FbJs_X8TziB0Y-33" vertex="1">
          <mxGeometry y="34" width="440" height="726" as="geometry" />
        </mxCell>
        <mxCell id="MUtRLJ9FbJs_X8TziB0Y-37" value="ChessBoardImpl" style="swimlane;fontStyle=1;align=center;verticalAlign=top;childLayout=stackLayout;horizontal=1;startSize=26;horizontalStack=0;resizeParent=1;resizeParentMax=0;resizeLast=0;collapsible=1;marginBottom=0;whiteSpace=wrap;html=1;" parent="WIyWlLk6GJQsqaUBKTNV-1" vertex="1">
          <mxGeometry x="-760" y="1190" width="440" height="118" as="geometry" />
        </mxCell>
        <mxCell id="MUtRLJ9FbJs_X8TziB0Y-38" value="- teamOne: Team&lt;br&gt;- teamTwo: Team&lt;br&gt;&lt;div&gt;&lt;br&gt;- completedMoves: vector&amp;lt;BoardMove&amp;gt;&lt;br&gt;- redoMoves: vector&amp;lt;BoardMove&amp;gt;&lt;/div&gt;" style="text;strokeColor=none;fillColor=none;align=left;verticalAlign=top;spacingLeft=4;spacingRight=4;overflow=hidden;rotatable=0;points=[[0,0.5],[1,0.5]];portConstraint=eastwest;whiteSpace=wrap;html=1;" parent="MUtRLJ9FbJs_X8TziB0Y-37" vertex="1">
          <mxGeometry y="26" width="440" height="84" as="geometry" />
        </mxCell>
        <mxCell id="MUtRLJ9FbJs_X8TziB0Y-39" value="" style="line;strokeWidth=1;fillColor=none;align=left;verticalAlign=middle;spacingTop=-1;spacingLeft=3;spacingRight=3;rotatable=0;labelPosition=right;points=[];portConstraint=eastwest;strokeColor=inherit;" parent="MUtRLJ9FbJs_X8TziB0Y-37" vertex="1">
          <mxGeometry y="110" width="440" height="8" as="geometry" />
        </mxCell>
        <mxCell id="MUtRLJ9FbJs_X8TziB0Y-52" style="edgeStyle=orthogonalEdgeStyle;rounded=0;orthogonalLoop=1;jettySize=auto;html=1;exitX=0;exitY=0.75;exitDx=0;exitDy=0;entryX=1;entryY=0.213;entryDx=0;entryDy=0;entryPerimeter=0;endArrow=open;endFill=0;startArrow=diamondThin;startFill=0;" parent="WIyWlLk6GJQsqaUBKTNV-1" source="MUtRLJ9FbJs_X8TziB0Y-16" target="MUtRLJ9FbJs_X8TziB0Y-12" edge="1">
          <mxGeometry relative="1" as="geometry" />
        </mxCell>
        <mxCell id="MUtRLJ9FbJs_X8TziB0Y-56" style="edgeStyle=orthogonalEdgeStyle;rounded=0;orthogonalLoop=1;jettySize=auto;html=1;entryX=1;entryY=0.036;entryDx=0;entryDy=0;entryPerimeter=0;endArrow=open;endFill=0;startArrow=diamondThin;startFill=1;" parent="WIyWlLk6GJQsqaUBKTNV-1" source="MUtRLJ9FbJs_X8TziB0Y-12" target="MUtRLJ9FbJs_X8TziB0Y-36" edge="1">
          <mxGeometry relative="1" as="geometry" />
        </mxCell>
        <mxCell id="MUtRLJ9FbJs_X8TziB0Y-57" value="1" style="text;html=1;align=center;verticalAlign=middle;resizable=0;points=[];autosize=1;strokeColor=none;fillColor=none;" parent="WIyWlLk6GJQsqaUBKTNV-1" vertex="1">
          <mxGeometry x="-270" y="384" width="30" height="30" as="geometry" />
        </mxCell>
        <mxCell id="MUtRLJ9FbJs_X8TziB0Y-74" style="edgeStyle=orthogonalEdgeStyle;rounded=0;orthogonalLoop=1;jettySize=auto;html=1;endArrow=block;endFill=0;exitX=0.5;exitY=0;exitDx=0;exitDy=0;" parent="WIyWlLk6GJQsqaUBKTNV-1" source="MUtRLJ9FbJs_X8TziB0Y-62" target="MUtRLJ9FbJs_X8TziB0Y-58" edge="1">
          <mxGeometry relative="1" as="geometry" />
        </mxCell>
        <mxCell id="MUtRLJ9FbJs_X8TziB0Y-58" value="&lt;i&gt;CommandRetriever&lt;/i&gt;" style="swimlane;fontStyle=1;align=center;verticalAlign=top;childLayout=stackLayout;horizontal=1;startSize=26;horizontalStack=0;resizeParent=1;resizeParentMax=0;resizeLast=0;collapsible=1;marginBottom=0;whiteSpace=wrap;html=1;" parent="WIyWlLk6GJQsqaUBKTNV-1" vertex="1">
          <mxGeometry x="120" y="550" width="240" height="100" as="geometry" />
        </mxCell>
        <mxCell id="MUtRLJ9FbJs_X8TziB0Y-60" value="" style="line;strokeWidth=1;fillColor=none;align=left;verticalAlign=middle;spacingTop=-1;spacingLeft=3;spacingRight=3;rotatable=0;labelPosition=right;points=[];portConstraint=eastwest;strokeColor=inherit;" parent="MUtRLJ9FbJs_X8TziB0Y-58" vertex="1">
          <mxGeometry y="26" width="240" height="8" as="geometry" />
        </mxCell>
        <mxCell id="MUtRLJ9FbJs_X8TziB0Y-61" value="&lt;i&gt;+ clone(): CommandRetriever&lt;br&gt;&lt;br&gt;+ isCommandAvailable(): bool&lt;br&gt;+ retrieveCommand(): string?&lt;/i&gt;" style="text;strokeColor=none;fillColor=none;align=left;verticalAlign=top;spacingLeft=4;spacingRight=4;overflow=hidden;rotatable=0;points=[[0,0.5],[1,0.5]];portConstraint=eastwest;whiteSpace=wrap;html=1;" parent="MUtRLJ9FbJs_X8TziB0Y-58" vertex="1">
          <mxGeometry y="34" width="240" height="66" as="geometry" />
        </mxCell>
        <mxCell id="MUtRLJ9FbJs_X8TziB0Y-62" value="ConsoleCommandRetriever" style="swimlane;fontStyle=1;align=center;verticalAlign=top;childLayout=stackLayout;horizontal=1;startSize=26;horizontalStack=0;resizeParent=1;resizeParentMax=0;resizeLast=0;collapsible=1;marginBottom=0;whiteSpace=wrap;html=1;" parent="WIyWlLk6GJQsqaUBKTNV-1" vertex="1">
          <mxGeometry x="120" y="710" width="240" height="34" as="geometry" />
        </mxCell>
        <mxCell id="MUtRLJ9FbJs_X8TziB0Y-64" value="" style="line;strokeWidth=1;fillColor=none;align=left;verticalAlign=middle;spacingTop=-1;spacingLeft=3;spacingRight=3;rotatable=0;labelPosition=right;points=[];portConstraint=eastwest;strokeColor=inherit;" parent="MUtRLJ9FbJs_X8TziB0Y-62" vertex="1">
          <mxGeometry y="26" width="240" height="8" as="geometry" />
        </mxCell>
        <mxCell id="MUtRLJ9FbJs_X8TziB0Y-66" value="IllegalCommandReporter" style="swimlane;fontStyle=1;align=center;verticalAlign=top;childLayout=stackLayout;horizontal=1;startSize=26;horizontalStack=0;resizeParent=1;resizeParentMax=0;resizeLast=0;collapsible=1;marginBottom=0;whiteSpace=wrap;html=1;" parent="WIyWlLk6GJQsqaUBKTNV-1" vertex="1">
          <mxGeometry x="440" y="550" width="240" height="100" as="geometry" />
        </mxCell>
        <mxCell id="MUtRLJ9FbJs_X8TziB0Y-68" value="" style="line;strokeWidth=1;fillColor=none;align=left;verticalAlign=middle;spacingTop=-1;spacingLeft=3;spacingRight=3;rotatable=0;labelPosition=right;points=[];portConstraint=eastwest;strokeColor=inherit;" parent="MUtRLJ9FbJs_X8TziB0Y-66" vertex="1">
          <mxGeometry y="26" width="240" height="8" as="geometry" />
        </mxCell>
        <mxCell id="MUtRLJ9FbJs_X8TziB0Y-69" value="&lt;i&gt;+ clone(): IllegalCommandReporter&lt;br&gt;&lt;br&gt;+ reportIllegalCommand(string): void&lt;/i&gt;" style="text;strokeColor=none;fillColor=none;align=left;verticalAlign=top;spacingLeft=4;spacingRight=4;overflow=hidden;rotatable=0;points=[[0,0.5],[1,0.5]];portConstraint=eastwest;whiteSpace=wrap;html=1;" parent="MUtRLJ9FbJs_X8TziB0Y-66" vertex="1">
          <mxGeometry y="34" width="240" height="66" as="geometry" />
        </mxCell>
        <mxCell id="MUtRLJ9FbJs_X8TziB0Y-70" value="ConsoleIllegalCommandReporter" style="swimlane;fontStyle=1;align=center;verticalAlign=top;childLayout=stackLayout;horizontal=1;startSize=26;horizontalStack=0;resizeParent=1;resizeParentMax=0;resizeLast=0;collapsible=1;marginBottom=0;whiteSpace=wrap;html=1;" parent="WIyWlLk6GJQsqaUBKTNV-1" vertex="1">
          <mxGeometry x="440" y="710" width="240" height="34" as="geometry" />
        </mxCell>
        <mxCell id="MUtRLJ9FbJs_X8TziB0Y-72" value="" style="line;strokeWidth=1;fillColor=none;align=left;verticalAlign=middle;spacingTop=-1;spacingLeft=3;spacingRight=3;rotatable=0;labelPosition=right;points=[];portConstraint=eastwest;strokeColor=inherit;" parent="MUtRLJ9FbJs_X8TziB0Y-70" vertex="1">
          <mxGeometry y="26" width="240" height="8" as="geometry" />
        </mxCell>
        <mxCell id="MUtRLJ9FbJs_X8TziB0Y-101" style="edgeStyle=orthogonalEdgeStyle;rounded=0;orthogonalLoop=1;jettySize=auto;html=1;entryX=0.5;entryY=0;entryDx=0;entryDy=0;endArrow=open;endFill=0;startArrow=diamondThin;startFill=1;" parent="WIyWlLk6GJQsqaUBKTNV-1" source="MUtRLJ9FbJs_X8TziB0Y-76" target="MUtRLJ9FbJs_X8TziB0Y-87" edge="1">
          <mxGeometry relative="1" as="geometry" />
        </mxCell>
        <mxCell id="MUtRLJ9FbJs_X8TziB0Y-76" value="Player" style="swimlane;fontStyle=1;align=center;verticalAlign=top;childLayout=stackLayout;horizontal=1;startSize=26;horizontalStack=0;resizeParent=1;resizeParentMax=0;resizeLast=0;collapsible=1;marginBottom=0;whiteSpace=wrap;html=1;" parent="WIyWlLk6GJQsqaUBKTNV-1" vertex="1">
          <mxGeometry x="-240" y="550" width="280" height="160" as="geometry" />
        </mxCell>
        <mxCell id="MUtRLJ9FbJs_X8TziB0Y-77" value="- playerType: PlayerType&lt;br&gt;- team: Team" style="text;strokeColor=none;fillColor=none;align=left;verticalAlign=top;spacingLeft=4;spacingRight=4;overflow=hidden;rotatable=0;points=[[0,0.5],[1,0.5]];portConstraint=eastwest;whiteSpace=wrap;html=1;" parent="MUtRLJ9FbJs_X8TziB0Y-76" vertex="1">
          <mxGeometry y="26" width="280" height="44" as="geometry" />
        </mxCell>
        <mxCell id="MUtRLJ9FbJs_X8TziB0Y-78" value="" style="line;strokeWidth=1;fillColor=none;align=left;verticalAlign=middle;spacingTop=-1;spacingLeft=3;spacingRight=3;rotatable=0;labelPosition=right;points=[];portConstraint=eastwest;strokeColor=inherit;" parent="MUtRLJ9FbJs_X8TziB0Y-76" vertex="1">
          <mxGeometry y="70" width="280" height="8" as="geometry" />
        </mxCell>
        <mxCell id="MUtRLJ9FbJs_X8TziB0Y-79" value="+ getPlayerType(): PlayerType&lt;br&gt;+ getTeam(): Team&lt;br&gt;+ getComputerPlayer(): ComputerPlayer&lt;br&gt;+ setComputerPlayer(ComputerPlayer): void&lt;div&gt;&lt;br&gt;&lt;/div&gt;" style="text;strokeColor=none;fillColor=none;align=left;verticalAlign=top;spacingLeft=4;spacingRight=4;overflow=hidden;rotatable=0;points=[[0,0.5],[1,0.5]];portConstraint=eastwest;whiteSpace=wrap;html=1;" parent="MUtRLJ9FbJs_X8TziB0Y-76" vertex="1">
          <mxGeometry y="78" width="280" height="82" as="geometry" />
        </mxCell>
        <mxCell id="MUtRLJ9FbJs_X8TziB0Y-83" value="1" style="text;html=1;align=center;verticalAlign=middle;resizable=0;points=[];autosize=1;strokeColor=none;fillColor=none;" parent="WIyWlLk6GJQsqaUBKTNV-1" vertex="1">
          <mxGeometry x="-80" y="384" width="30" height="30" as="geometry" />
        </mxCell>
        <mxCell id="MUtRLJ9FbJs_X8TziB0Y-84" value="1" style="text;html=1;align=center;verticalAlign=middle;resizable=0;points=[];autosize=1;strokeColor=none;fillColor=none;" parent="WIyWlLk6GJQsqaUBKTNV-1" vertex="1">
          <mxGeometry x="-80" y="414" width="30" height="30" as="geometry" />
        </mxCell>
        <mxCell id="MUtRLJ9FbJs_X8TziB0Y-86" value="2" style="text;html=1;align=center;verticalAlign=middle;resizable=0;points=[];autosize=1;strokeColor=none;fillColor=none;" parent="WIyWlLk6GJQsqaUBKTNV-1" vertex="1">
          <mxGeometry x="-165" y="468" width="30" height="30" as="geometry" />
        </mxCell>
        <mxCell id="MUtRLJ9FbJs_X8TziB0Y-87" value="&lt;i&gt;ComputerPlayer&lt;/i&gt;" style="swimlane;fontStyle=1;align=center;verticalAlign=top;childLayout=stackLayout;horizontal=1;startSize=26;horizontalStack=0;resizeParent=1;resizeParentMax=0;resizeLast=0;collapsible=1;marginBottom=0;whiteSpace=wrap;html=1;" parent="WIyWlLk6GJQsqaUBKTNV-1" vertex="1">
          <mxGeometry x="-240" y="790" width="280" height="130" as="geometry" />
        </mxCell>
        <mxCell id="MUtRLJ9FbJs_X8TziB0Y-88" value="- team: Team" style="text;strokeColor=none;fillColor=none;align=left;verticalAlign=top;spacingLeft=4;spacingRight=4;overflow=hidden;rotatable=0;points=[[0,0.5],[1,0.5]];portConstraint=eastwest;whiteSpace=wrap;html=1;" parent="MUtRLJ9FbJs_X8TziB0Y-87" vertex="1">
          <mxGeometry y="26" width="280" height="26" as="geometry" />
        </mxCell>
        <mxCell id="MUtRLJ9FbJs_X8TziB0Y-89" value="" style="line;strokeWidth=1;fillColor=none;align=left;verticalAlign=middle;spacingTop=-1;spacingLeft=3;spacingRight=3;rotatable=0;labelPosition=right;points=[];portConstraint=eastwest;strokeColor=inherit;" parent="MUtRLJ9FbJs_X8TziB0Y-87" vertex="1">
          <mxGeometry y="52" width="280" height="8" as="geometry" />
        </mxCell>
        <mxCell id="MUtRLJ9FbJs_X8TziB0Y-90" value="&lt;i&gt;+ clone(): ComputerPlayer&lt;br&gt;&lt;br&gt;+ generateMove(ChessBoard): BoardMove&lt;br&gt;+ getTeam(): Team&lt;/i&gt;" style="text;strokeColor=none;fillColor=none;align=left;verticalAlign=top;spacingLeft=4;spacingRight=4;overflow=hidden;rotatable=0;points=[[0,0.5],[1,0.5]];portConstraint=eastwest;whiteSpace=wrap;html=1;" parent="MUtRLJ9FbJs_X8TziB0Y-87" vertex="1">
          <mxGeometry y="60" width="280" height="70" as="geometry" />
        </mxCell>
        <mxCell id="MUtRLJ9FbJs_X8TziB0Y-91" value="&lt;i&gt;Piece&lt;/i&gt;" style="swimlane;fontStyle=1;align=center;verticalAlign=top;childLayout=stackLayout;horizontal=1;startSize=26;horizontalStack=0;resizeParent=1;resizeParentMax=0;resizeLast=0;collapsible=1;marginBottom=0;whiteSpace=wrap;html=1;" parent="WIyWlLk6GJQsqaUBKTNV-1" vertex="1">
          <mxGeometry x="-1280" y="350" width="440" height="180" as="geometry" />
        </mxCell>
        <mxCell id="MUtRLJ9FbJs_X8TziB0Y-92" value="- pieceData: PieceData&lt;br&gt;- pieceInfo: PieceInfo" style="text;strokeColor=none;fillColor=none;align=left;verticalAlign=top;spacingLeft=4;spacingRight=4;overflow=hidden;rotatable=0;points=[[0,0.5],[1,0.5]];portConstraint=eastwest;whiteSpace=wrap;html=1;" parent="MUtRLJ9FbJs_X8TziB0Y-91" vertex="1">
          <mxGeometry y="26" width="440" height="44" as="geometry" />
        </mxCell>
        <mxCell id="MUtRLJ9FbJs_X8TziB0Y-93" value="" style="line;strokeWidth=1;fillColor=none;align=left;verticalAlign=middle;spacingTop=-1;spacingLeft=3;spacingRight=3;rotatable=0;labelPosition=right;points=[];portConstraint=eastwest;strokeColor=inherit;" parent="MUtRLJ9FbJs_X8TziB0Y-91" vertex="1">
          <mxGeometry y="70" width="440" height="8" as="geometry" />
        </mxCell>
        <mxCell id="MUtRLJ9FbJs_X8TziB0Y-94" value="&lt;i&gt;+ clone(): Piece&lt;br&gt;&lt;/i&gt;&lt;br&gt;&lt;i&gt;+ getMoves(ChessBoard, BoardSquare, Bool): vector&amp;lt;BoardMove&amp;gt;&lt;/i&gt;&lt;div&gt;&lt;i&gt;&lt;br&gt;&lt;/i&gt;+ getPieceData(): PieceData&lt;br&gt;+ getPieceInfo(): PieceInfo&lt;/div&gt;" style="text;strokeColor=none;fillColor=none;align=left;verticalAlign=top;spacingLeft=4;spacingRight=4;overflow=hidden;rotatable=0;points=[[0,0.5],[1,0.5]];portConstraint=eastwest;whiteSpace=wrap;html=1;" parent="MUtRLJ9FbJs_X8TziB0Y-91" vertex="1">
          <mxGeometry y="78" width="440" height="102" as="geometry" />
        </mxCell>
        <mxCell id="MUtRLJ9FbJs_X8TziB0Y-99" style="edgeStyle=orthogonalEdgeStyle;rounded=0;orthogonalLoop=1;jettySize=auto;html=1;exitX=0;exitY=0.036;exitDx=0;exitDy=0;endArrow=open;endFill=0;startArrow=diamondThin;startFill=1;exitPerimeter=0;entryX=1;entryY=0.773;entryDx=0;entryDy=0;entryPerimeter=0;" parent="WIyWlLk6GJQsqaUBKTNV-1" source="MUtRLJ9FbJs_X8TziB0Y-36" target="MUtRLJ9FbJs_X8TziB0Y-92" edge="1">
          <mxGeometry relative="1" as="geometry">
            <mxPoint x="-770" y="409.478" as="sourcePoint" />
            <mxPoint x="-820" y="410" as="targetPoint" />
            <Array as="points">
              <mxPoint x="-770" y="410" />
            </Array>
          </mxGeometry>
        </mxCell>
        <mxCell id="MUtRLJ9FbJs_X8TziB0Y-100" value="0..*" style="text;html=1;align=center;verticalAlign=middle;resizable=0;points=[];autosize=1;strokeColor=none;fillColor=none;" parent="WIyWlLk6GJQsqaUBKTNV-1" vertex="1">
          <mxGeometry x="-800" y="384" width="40" height="30" as="geometry" />
        </mxCell>
        <mxCell id="MUtRLJ9FbJs_X8TziB0Y-102" value="0..1" style="text;html=1;align=center;verticalAlign=middle;resizable=0;points=[];autosize=1;strokeColor=none;fillColor=none;" parent="WIyWlLk6GJQsqaUBKTNV-1" vertex="1">
          <mxGeometry x="-105" y="710" width="40" height="30" as="geometry" />
        </mxCell>
        <mxCell id="MUtRLJ9FbJs_X8TziB0Y-131" style="edgeStyle=orthogonalEdgeStyle;rounded=0;orthogonalLoop=1;jettySize=auto;html=1;endArrow=none;endFill=0;" parent="WIyWlLk6GJQsqaUBKTNV-1" source="MUtRLJ9FbJs_X8TziB0Y-103" target="MUtRLJ9FbJs_X8TziB0Y-129" edge="1">
          <mxGeometry relative="1" as="geometry">
            <Array as="points">
              <mxPoint x="80" y="807" />
            </Array>
          </mxGeometry>
        </mxCell>
        <mxCell id="MUtRLJ9FbJs_X8TziB0Y-103" value="LevelOneComputer" style="swimlane;fontStyle=1;align=center;verticalAlign=top;childLayout=stackLayout;horizontal=1;startSize=26;horizontalStack=0;resizeParent=1;resizeParentMax=0;resizeLast=0;collapsible=1;marginBottom=0;whiteSpace=wrap;html=1;" parent="WIyWlLk6GJQsqaUBKTNV-1" vertex="1">
          <mxGeometry x="120" y="790" width="240" height="34" as="geometry" />
        </mxCell>
        <mxCell id="MUtRLJ9FbJs_X8TziB0Y-105" value="" style="line;strokeWidth=1;fillColor=none;align=left;verticalAlign=middle;spacingTop=-1;spacingLeft=3;spacingRight=3;rotatable=0;labelPosition=right;points=[];portConstraint=eastwest;strokeColor=inherit;" parent="MUtRLJ9FbJs_X8TziB0Y-103" vertex="1">
          <mxGeometry y="26" width="240" height="8" as="geometry" />
        </mxCell>
        <mxCell id="MUtRLJ9FbJs_X8TziB0Y-107" value="LevelFourComputer" style="swimlane;fontStyle=1;align=center;verticalAlign=top;childLayout=stackLayout;horizontal=1;startSize=26;horizontalStack=0;resizeParent=1;resizeParentMax=0;resizeLast=0;collapsible=1;marginBottom=0;whiteSpace=wrap;html=1;" parent="WIyWlLk6GJQsqaUBKTNV-1" vertex="1">
          <mxGeometry x="120" y="970" width="240" height="34" as="geometry" />
        </mxCell>
        <mxCell id="MUtRLJ9FbJs_X8TziB0Y-109" value="" style="line;strokeWidth=1;fillColor=none;align=left;verticalAlign=middle;spacingTop=-1;spacingLeft=3;spacingRight=3;rotatable=0;labelPosition=right;points=[];portConstraint=eastwest;strokeColor=inherit;" parent="MUtRLJ9FbJs_X8TziB0Y-107" vertex="1">
          <mxGeometry y="26" width="240" height="8" as="geometry" />
        </mxCell>
        <mxCell id="MUtRLJ9FbJs_X8TziB0Y-111" value="LevelThreeComputer" style="swimlane;fontStyle=1;align=center;verticalAlign=top;childLayout=stackLayout;horizontal=1;startSize=26;horizontalStack=0;resizeParent=1;resizeParentMax=0;resizeLast=0;collapsible=1;marginBottom=0;whiteSpace=wrap;html=1;" parent="WIyWlLk6GJQsqaUBKTNV-1" vertex="1">
          <mxGeometry x="120" y="910" width="240" height="34" as="geometry" />
        </mxCell>
        <mxCell id="MUtRLJ9FbJs_X8TziB0Y-113" value="" style="line;strokeWidth=1;fillColor=none;align=left;verticalAlign=middle;spacingTop=-1;spacingLeft=3;spacingRight=3;rotatable=0;labelPosition=right;points=[];portConstraint=eastwest;strokeColor=inherit;" parent="MUtRLJ9FbJs_X8TziB0Y-111" vertex="1">
          <mxGeometry y="26" width="240" height="8" as="geometry" />
        </mxCell>
        <mxCell id="MUtRLJ9FbJs_X8TziB0Y-124" value="LevelTwoComputer" style="swimlane;fontStyle=1;align=center;verticalAlign=top;childLayout=stackLayout;horizontal=1;startSize=26;horizontalStack=0;resizeParent=1;resizeParentMax=0;resizeLast=0;collapsible=1;marginBottom=0;whiteSpace=wrap;html=1;" parent="WIyWlLk6GJQsqaUBKTNV-1" vertex="1">
          <mxGeometry x="120" y="850" width="240" height="34" as="geometry" />
        </mxCell>
        <mxCell id="MUtRLJ9FbJs_X8TziB0Y-126" value="" style="line;strokeWidth=1;fillColor=none;align=left;verticalAlign=middle;spacingTop=-1;spacingLeft=3;spacingRight=3;rotatable=0;labelPosition=right;points=[];portConstraint=eastwest;strokeColor=inherit;" parent="MUtRLJ9FbJs_X8TziB0Y-124" vertex="1">
          <mxGeometry y="26" width="240" height="8" as="geometry" />
        </mxCell>
        <mxCell id="MUtRLJ9FbJs_X8TziB0Y-129" value="" style="shape=waypoint;sketch=0;size=6;pointerEvents=1;points=[];fillColor=none;resizable=0;rotatable=0;perimeter=centerPerimeter;snapToPoint=1;" parent="WIyWlLk6GJQsqaUBKTNV-1" vertex="1">
          <mxGeometry x="70" y="820" width="20" height="20" as="geometry" />
        </mxCell>
        <mxCell id="MUtRLJ9FbJs_X8TziB0Y-132" style="edgeStyle=orthogonalEdgeStyle;rounded=0;orthogonalLoop=1;jettySize=auto;html=1;entryX=0.462;entryY=0.987;entryDx=0;entryDy=0;entryPerimeter=0;endArrow=none;endFill=0;" parent="WIyWlLk6GJQsqaUBKTNV-1" source="MUtRLJ9FbJs_X8TziB0Y-124" target="MUtRLJ9FbJs_X8TziB0Y-129" edge="1">
          <mxGeometry relative="1" as="geometry" />
        </mxCell>
        <mxCell id="MUtRLJ9FbJs_X8TziB0Y-133" style="edgeStyle=orthogonalEdgeStyle;rounded=0;orthogonalLoop=1;jettySize=auto;html=1;entryX=0.538;entryY=0.349;entryDx=0;entryDy=0;entryPerimeter=0;endArrow=none;endFill=0;" parent="WIyWlLk6GJQsqaUBKTNV-1" source="MUtRLJ9FbJs_X8TziB0Y-111" target="MUtRLJ9FbJs_X8TziB0Y-129" edge="1">
          <mxGeometry relative="1" as="geometry" />
        </mxCell>
        <mxCell id="MUtRLJ9FbJs_X8TziB0Y-134" style="edgeStyle=orthogonalEdgeStyle;rounded=0;orthogonalLoop=1;jettySize=auto;html=1;entryX=0.621;entryY=0.654;entryDx=0;entryDy=0;entryPerimeter=0;endArrow=none;endFill=0;" parent="WIyWlLk6GJQsqaUBKTNV-1" source="MUtRLJ9FbJs_X8TziB0Y-107" target="MUtRLJ9FbJs_X8TziB0Y-129" edge="1">
          <mxGeometry relative="1" as="geometry" />
        </mxCell>
        <mxCell id="MUtRLJ9FbJs_X8TziB0Y-139" value="LevelFiveComputer" style="swimlane;fontStyle=1;align=center;verticalAlign=top;childLayout=stackLayout;horizontal=1;startSize=26;horizontalStack=0;resizeParent=1;resizeParentMax=0;resizeLast=0;collapsible=1;marginBottom=0;whiteSpace=wrap;html=1;" parent="WIyWlLk6GJQsqaUBKTNV-1" vertex="1">
          <mxGeometry x="120" y="1030" width="240" height="34" as="geometry" />
        </mxCell>
        <mxCell id="MUtRLJ9FbJs_X8TziB0Y-140" value="" style="line;strokeWidth=1;fillColor=none;align=left;verticalAlign=middle;spacingTop=-1;spacingLeft=3;spacingRight=3;rotatable=0;labelPosition=right;points=[];portConstraint=eastwest;strokeColor=inherit;" parent="MUtRLJ9FbJs_X8TziB0Y-139" vertex="1">
          <mxGeometry y="26" width="240" height="8" as="geometry" />
        </mxCell>
        <mxCell id="MUtRLJ9FbJs_X8TziB0Y-141" style="edgeStyle=orthogonalEdgeStyle;rounded=0;orthogonalLoop=1;jettySize=auto;html=1;entryX=0.591;entryY=0.373;entryDx=0;entryDy=0;entryPerimeter=0;endArrow=none;endFill=0;" parent="WIyWlLk6GJQsqaUBKTNV-1" source="MUtRLJ9FbJs_X8TziB0Y-139" target="MUtRLJ9FbJs_X8TziB0Y-129" edge="1">
          <mxGeometry relative="1" as="geometry" />
        </mxCell>
        <mxCell id="MUtRLJ9FbJs_X8TziB0Y-150" value="AdvancedKing" style="swimlane;fontStyle=1;align=center;verticalAlign=top;childLayout=stackLayout;horizontal=1;startSize=26;horizontalStack=0;resizeParent=1;resizeParentMax=0;resizeLast=0;collapsible=1;marginBottom=0;whiteSpace=wrap;html=1;" parent="WIyWlLk6GJQsqaUBKTNV-1" vertex="1">
          <mxGeometry x="-960" y="670" width="120" height="34" as="geometry" />
        </mxCell>
        <mxCell id="MUtRLJ9FbJs_X8TziB0Y-152" value="" style="line;strokeWidth=1;fillColor=none;align=left;verticalAlign=middle;spacingTop=-1;spacingLeft=3;spacingRight=3;rotatable=0;labelPosition=right;points=[];portConstraint=eastwest;strokeColor=inherit;" parent="MUtRLJ9FbJs_X8TziB0Y-150" vertex="1">
          <mxGeometry y="26" width="120" height="8" as="geometry" />
        </mxCell>
        <mxCell id="MUtRLJ9FbJs_X8TziB0Y-161" value="BasicKing" style="swimlane;fontStyle=1;align=center;verticalAlign=top;childLayout=stackLayout;horizontal=1;startSize=26;horizontalStack=0;resizeParent=1;resizeParentMax=0;resizeLast=0;collapsible=1;marginBottom=0;whiteSpace=wrap;html=1;" parent="WIyWlLk6GJQsqaUBKTNV-1" vertex="1">
          <mxGeometry x="-1120" y="670" width="120" height="34" as="geometry" />
        </mxCell>
        <mxCell id="MUtRLJ9FbJs_X8TziB0Y-162" value="" style="line;strokeWidth=1;fillColor=none;align=left;verticalAlign=middle;spacingTop=-1;spacingLeft=3;spacingRight=3;rotatable=0;labelPosition=right;points=[];portConstraint=eastwest;strokeColor=inherit;" parent="MUtRLJ9FbJs_X8TziB0Y-161" vertex="1">
          <mxGeometry y="26" width="120" height="8" as="geometry" />
        </mxCell>
        <mxCell id="MUtRLJ9FbJs_X8TziB0Y-202" style="edgeStyle=orthogonalEdgeStyle;rounded=0;orthogonalLoop=1;jettySize=auto;html=1;endArrow=block;endFill=0;" parent="WIyWlLk6GJQsqaUBKTNV-1" source="MUtRLJ9FbJs_X8TziB0Y-198" target="MUtRLJ9FbJs_X8TziB0Y-167" edge="1">
          <mxGeometry relative="1" as="geometry">
            <mxPoint x="-1000.0000000000002" y="660" as="sourcePoint" />
            <Array as="points">
              <mxPoint x="-980" y="640" />
              <mxPoint x="-1220" y="640" />
            </Array>
          </mxGeometry>
        </mxCell>
        <mxCell id="MUtRLJ9FbJs_X8TziB0Y-167" value="&lt;i&gt;King&lt;/i&gt;" style="swimlane;fontStyle=1;align=center;verticalAlign=top;childLayout=stackLayout;horizontal=1;startSize=26;horizontalStack=0;resizeParent=1;resizeParentMax=0;resizeLast=0;collapsible=1;marginBottom=0;whiteSpace=wrap;html=1;" parent="WIyWlLk6GJQsqaUBKTNV-1" vertex="1">
          <mxGeometry x="-1280" y="670" width="120" height="34" as="geometry" />
        </mxCell>
        <mxCell id="MUtRLJ9FbJs_X8TziB0Y-168" value="" style="line;strokeWidth=1;fillColor=none;align=left;verticalAlign=middle;spacingTop=-1;spacingLeft=3;spacingRight=3;rotatable=0;labelPosition=right;points=[];portConstraint=eastwest;strokeColor=inherit;" parent="MUtRLJ9FbJs_X8TziB0Y-167" vertex="1">
          <mxGeometry y="26" width="120" height="8" as="geometry" />
        </mxCell>
        <mxCell id="MUtRLJ9FbJs_X8TziB0Y-198" value="" style="shape=waypoint;sketch=0;size=6;pointerEvents=1;points=[];fillColor=none;resizable=0;rotatable=0;perimeter=centerPerimeter;snapToPoint=1;" parent="WIyWlLk6GJQsqaUBKTNV-1" vertex="1">
          <mxGeometry x="-990" y="645" width="20" height="20" as="geometry" />
        </mxCell>
        <mxCell id="MUtRLJ9FbJs_X8TziB0Y-200" style="edgeStyle=orthogonalEdgeStyle;rounded=0;orthogonalLoop=1;jettySize=auto;html=1;entryX=0.575;entryY=0.975;entryDx=0;entryDy=0;entryPerimeter=0;endArrow=none;endFill=0;" parent="WIyWlLk6GJQsqaUBKTNV-1" source="MUtRLJ9FbJs_X8TziB0Y-150" target="MUtRLJ9FbJs_X8TziB0Y-198" edge="1">
          <mxGeometry relative="1" as="geometry">
            <Array as="points">
              <mxPoint x="-900" y="655" />
            </Array>
          </mxGeometry>
        </mxCell>
        <mxCell id="MUtRLJ9FbJs_X8TziB0Y-201" style="edgeStyle=orthogonalEdgeStyle;rounded=0;orthogonalLoop=1;jettySize=auto;html=1;entryX=0.6;entryY=0.675;entryDx=0;entryDy=0;entryPerimeter=0;endArrow=none;endFill=0;" parent="WIyWlLk6GJQsqaUBKTNV-1" source="MUtRLJ9FbJs_X8TziB0Y-161" target="MUtRLJ9FbJs_X8TziB0Y-198" edge="1">
          <mxGeometry relative="1" as="geometry">
            <Array as="points">
              <mxPoint x="-1060" y="655" />
            </Array>
          </mxGeometry>
        </mxCell>
        <mxCell id="MUtRLJ9FbJs_X8TziB0Y-203" value="AdvancedBishop" style="swimlane;fontStyle=1;align=center;verticalAlign=top;childLayout=stackLayout;horizontal=1;startSize=26;horizontalStack=0;resizeParent=1;resizeParentMax=0;resizeLast=0;collapsible=1;marginBottom=0;whiteSpace=wrap;html=1;" parent="WIyWlLk6GJQsqaUBKTNV-1" vertex="1">
          <mxGeometry x="-960" y="590" width="120" height="34" as="geometry" />
        </mxCell>
        <mxCell id="MUtRLJ9FbJs_X8TziB0Y-204" value="" style="line;strokeWidth=1;fillColor=none;align=left;verticalAlign=middle;spacingTop=-1;spacingLeft=3;spacingRight=3;rotatable=0;labelPosition=right;points=[];portConstraint=eastwest;strokeColor=inherit;" parent="MUtRLJ9FbJs_X8TziB0Y-203" vertex="1">
          <mxGeometry y="26" width="120" height="8" as="geometry" />
        </mxCell>
        <mxCell id="MUtRLJ9FbJs_X8TziB0Y-205" value="BasicBishop" style="swimlane;fontStyle=1;align=center;verticalAlign=top;childLayout=stackLayout;horizontal=1;startSize=26;horizontalStack=0;resizeParent=1;resizeParentMax=0;resizeLast=0;collapsible=1;marginBottom=0;whiteSpace=wrap;html=1;" parent="WIyWlLk6GJQsqaUBKTNV-1" vertex="1">
          <mxGeometry x="-1120" y="590" width="120" height="34" as="geometry" />
        </mxCell>
        <mxCell id="MUtRLJ9FbJs_X8TziB0Y-206" value="" style="line;strokeWidth=1;fillColor=none;align=left;verticalAlign=middle;spacingTop=-1;spacingLeft=3;spacingRight=3;rotatable=0;labelPosition=right;points=[];portConstraint=eastwest;strokeColor=inherit;" parent="MUtRLJ9FbJs_X8TziB0Y-205" vertex="1">
          <mxGeometry y="26" width="120" height="8" as="geometry" />
        </mxCell>
        <mxCell id="MUtRLJ9FbJs_X8TziB0Y-207" style="edgeStyle=orthogonalEdgeStyle;rounded=0;orthogonalLoop=1;jettySize=auto;html=1;endArrow=block;endFill=0;" parent="WIyWlLk6GJQsqaUBKTNV-1" source="MUtRLJ9FbJs_X8TziB0Y-210" target="MUtRLJ9FbJs_X8TziB0Y-208" edge="1">
          <mxGeometry relative="1" as="geometry">
            <mxPoint x="-1000.0000000000002" y="580" as="sourcePoint" />
            <Array as="points">
              <mxPoint x="-980" y="560" />
              <mxPoint x="-1220" y="560" />
            </Array>
          </mxGeometry>
        </mxCell>
        <mxCell id="MUtRLJ9FbJs_X8TziB0Y-208" value="&lt;i&gt;Bishop&lt;/i&gt;" style="swimlane;fontStyle=1;align=center;verticalAlign=top;childLayout=stackLayout;horizontal=1;startSize=26;horizontalStack=0;resizeParent=1;resizeParentMax=0;resizeLast=0;collapsible=1;marginBottom=0;whiteSpace=wrap;html=1;" parent="WIyWlLk6GJQsqaUBKTNV-1" vertex="1">
          <mxGeometry x="-1280" y="590" width="120" height="34" as="geometry" />
        </mxCell>
        <mxCell id="MUtRLJ9FbJs_X8TziB0Y-209" value="" style="line;strokeWidth=1;fillColor=none;align=left;verticalAlign=middle;spacingTop=-1;spacingLeft=3;spacingRight=3;rotatable=0;labelPosition=right;points=[];portConstraint=eastwest;strokeColor=inherit;" parent="MUtRLJ9FbJs_X8TziB0Y-208" vertex="1">
          <mxGeometry y="26" width="120" height="8" as="geometry" />
        </mxCell>
        <mxCell id="MUtRLJ9FbJs_X8TziB0Y-210" value="" style="shape=waypoint;sketch=0;size=6;pointerEvents=1;points=[];fillColor=none;resizable=0;rotatable=0;perimeter=centerPerimeter;snapToPoint=1;" parent="WIyWlLk6GJQsqaUBKTNV-1" vertex="1">
          <mxGeometry x="-990" y="565" width="20" height="20" as="geometry" />
        </mxCell>
        <mxCell id="MUtRLJ9FbJs_X8TziB0Y-211" style="edgeStyle=orthogonalEdgeStyle;rounded=0;orthogonalLoop=1;jettySize=auto;html=1;entryX=0.575;entryY=0.975;entryDx=0;entryDy=0;entryPerimeter=0;endArrow=none;endFill=0;" parent="WIyWlLk6GJQsqaUBKTNV-1" source="MUtRLJ9FbJs_X8TziB0Y-203" target="MUtRLJ9FbJs_X8TziB0Y-210" edge="1">
          <mxGeometry relative="1" as="geometry">
            <Array as="points">
              <mxPoint x="-900" y="575" />
            </Array>
          </mxGeometry>
        </mxCell>
        <mxCell id="MUtRLJ9FbJs_X8TziB0Y-212" style="edgeStyle=orthogonalEdgeStyle;rounded=0;orthogonalLoop=1;jettySize=auto;html=1;entryX=0.6;entryY=0.675;entryDx=0;entryDy=0;entryPerimeter=0;endArrow=none;endFill=0;" parent="WIyWlLk6GJQsqaUBKTNV-1" source="MUtRLJ9FbJs_X8TziB0Y-205" target="MUtRLJ9FbJs_X8TziB0Y-210" edge="1">
          <mxGeometry relative="1" as="geometry">
            <Array as="points">
              <mxPoint x="-1060" y="575" />
            </Array>
          </mxGeometry>
        </mxCell>
        <mxCell id="MUtRLJ9FbJs_X8TziB0Y-213" value="AdvancedKnight" style="swimlane;fontStyle=1;align=center;verticalAlign=top;childLayout=stackLayout;horizontal=1;startSize=26;horizontalStack=0;resizeParent=1;resizeParentMax=0;resizeLast=0;collapsible=1;marginBottom=0;whiteSpace=wrap;html=1;" parent="WIyWlLk6GJQsqaUBKTNV-1" vertex="1">
          <mxGeometry x="-960" y="750" width="120" height="34" as="geometry" />
        </mxCell>
        <mxCell id="MUtRLJ9FbJs_X8TziB0Y-214" value="" style="line;strokeWidth=1;fillColor=none;align=left;verticalAlign=middle;spacingTop=-1;spacingLeft=3;spacingRight=3;rotatable=0;labelPosition=right;points=[];portConstraint=eastwest;strokeColor=inherit;" parent="MUtRLJ9FbJs_X8TziB0Y-213" vertex="1">
          <mxGeometry y="26" width="120" height="8" as="geometry" />
        </mxCell>
        <mxCell id="MUtRLJ9FbJs_X8TziB0Y-215" value="BasicKnight" style="swimlane;fontStyle=1;align=center;verticalAlign=top;childLayout=stackLayout;horizontal=1;startSize=26;horizontalStack=0;resizeParent=1;resizeParentMax=0;resizeLast=0;collapsible=1;marginBottom=0;whiteSpace=wrap;html=1;" parent="WIyWlLk6GJQsqaUBKTNV-1" vertex="1">
          <mxGeometry x="-1120" y="750" width="120" height="34" as="geometry" />
        </mxCell>
        <mxCell id="MUtRLJ9FbJs_X8TziB0Y-216" value="" style="line;strokeWidth=1;fillColor=none;align=left;verticalAlign=middle;spacingTop=-1;spacingLeft=3;spacingRight=3;rotatable=0;labelPosition=right;points=[];portConstraint=eastwest;strokeColor=inherit;" parent="MUtRLJ9FbJs_X8TziB0Y-215" vertex="1">
          <mxGeometry y="26" width="120" height="8" as="geometry" />
        </mxCell>
        <mxCell id="MUtRLJ9FbJs_X8TziB0Y-217" style="edgeStyle=orthogonalEdgeStyle;rounded=0;orthogonalLoop=1;jettySize=auto;html=1;endArrow=block;endFill=0;" parent="WIyWlLk6GJQsqaUBKTNV-1" source="MUtRLJ9FbJs_X8TziB0Y-220" target="MUtRLJ9FbJs_X8TziB0Y-218" edge="1">
          <mxGeometry relative="1" as="geometry">
            <mxPoint x="-1000.0000000000002" y="740" as="sourcePoint" />
            <Array as="points">
              <mxPoint x="-980" y="720" />
              <mxPoint x="-1220" y="720" />
            </Array>
          </mxGeometry>
        </mxCell>
        <mxCell id="MUtRLJ9FbJs_X8TziB0Y-218" value="&lt;i&gt;Knight&lt;/i&gt;" style="swimlane;fontStyle=1;align=center;verticalAlign=top;childLayout=stackLayout;horizontal=1;startSize=26;horizontalStack=0;resizeParent=1;resizeParentMax=0;resizeLast=0;collapsible=1;marginBottom=0;whiteSpace=wrap;html=1;" parent="WIyWlLk6GJQsqaUBKTNV-1" vertex="1">
          <mxGeometry x="-1280" y="750" width="120" height="34" as="geometry" />
        </mxCell>
        <mxCell id="MUtRLJ9FbJs_X8TziB0Y-219" value="" style="line;strokeWidth=1;fillColor=none;align=left;verticalAlign=middle;spacingTop=-1;spacingLeft=3;spacingRight=3;rotatable=0;labelPosition=right;points=[];portConstraint=eastwest;strokeColor=inherit;" parent="MUtRLJ9FbJs_X8TziB0Y-218" vertex="1">
          <mxGeometry y="26" width="120" height="8" as="geometry" />
        </mxCell>
        <mxCell id="MUtRLJ9FbJs_X8TziB0Y-220" value="" style="shape=waypoint;sketch=0;size=6;pointerEvents=1;points=[];fillColor=none;resizable=0;rotatable=0;perimeter=centerPerimeter;snapToPoint=1;" parent="WIyWlLk6GJQsqaUBKTNV-1" vertex="1">
          <mxGeometry x="-990" y="725" width="20" height="20" as="geometry" />
        </mxCell>
        <mxCell id="MUtRLJ9FbJs_X8TziB0Y-221" style="edgeStyle=orthogonalEdgeStyle;rounded=0;orthogonalLoop=1;jettySize=auto;html=1;entryX=0.575;entryY=0.975;entryDx=0;entryDy=0;entryPerimeter=0;endArrow=none;endFill=0;" parent="WIyWlLk6GJQsqaUBKTNV-1" source="MUtRLJ9FbJs_X8TziB0Y-213" target="MUtRLJ9FbJs_X8TziB0Y-220" edge="1">
          <mxGeometry relative="1" as="geometry">
            <Array as="points">
              <mxPoint x="-900" y="735" />
            </Array>
          </mxGeometry>
        </mxCell>
        <mxCell id="MUtRLJ9FbJs_X8TziB0Y-222" style="edgeStyle=orthogonalEdgeStyle;rounded=0;orthogonalLoop=1;jettySize=auto;html=1;entryX=0.6;entryY=0.675;entryDx=0;entryDy=0;entryPerimeter=0;endArrow=none;endFill=0;" parent="WIyWlLk6GJQsqaUBKTNV-1" source="MUtRLJ9FbJs_X8TziB0Y-215" target="MUtRLJ9FbJs_X8TziB0Y-220" edge="1">
          <mxGeometry relative="1" as="geometry">
            <Array as="points">
              <mxPoint x="-1060" y="735" />
            </Array>
          </mxGeometry>
        </mxCell>
        <mxCell id="MUtRLJ9FbJs_X8TziB0Y-223" value="AdvancedPawn" style="swimlane;fontStyle=1;align=center;verticalAlign=top;childLayout=stackLayout;horizontal=1;startSize=26;horizontalStack=0;resizeParent=1;resizeParentMax=0;resizeLast=0;collapsible=1;marginBottom=0;whiteSpace=wrap;html=1;" parent="WIyWlLk6GJQsqaUBKTNV-1" vertex="1">
          <mxGeometry x="-960" y="830" width="120" height="34" as="geometry" />
        </mxCell>
        <mxCell id="MUtRLJ9FbJs_X8TziB0Y-224" value="" style="line;strokeWidth=1;fillColor=none;align=left;verticalAlign=middle;spacingTop=-1;spacingLeft=3;spacingRight=3;rotatable=0;labelPosition=right;points=[];portConstraint=eastwest;strokeColor=inherit;" parent="MUtRLJ9FbJs_X8TziB0Y-223" vertex="1">
          <mxGeometry y="26" width="120" height="8" as="geometry" />
        </mxCell>
        <mxCell id="MUtRLJ9FbJs_X8TziB0Y-225" value="BasicPawn" style="swimlane;fontStyle=1;align=center;verticalAlign=top;childLayout=stackLayout;horizontal=1;startSize=26;horizontalStack=0;resizeParent=1;resizeParentMax=0;resizeLast=0;collapsible=1;marginBottom=0;whiteSpace=wrap;html=1;" parent="WIyWlLk6GJQsqaUBKTNV-1" vertex="1">
          <mxGeometry x="-1120" y="830" width="120" height="34" as="geometry" />
        </mxCell>
        <mxCell id="MUtRLJ9FbJs_X8TziB0Y-226" value="" style="line;strokeWidth=1;fillColor=none;align=left;verticalAlign=middle;spacingTop=-1;spacingLeft=3;spacingRight=3;rotatable=0;labelPosition=right;points=[];portConstraint=eastwest;strokeColor=inherit;" parent="MUtRLJ9FbJs_X8TziB0Y-225" vertex="1">
          <mxGeometry y="26" width="120" height="8" as="geometry" />
        </mxCell>
        <mxCell id="MUtRLJ9FbJs_X8TziB0Y-227" style="edgeStyle=orthogonalEdgeStyle;rounded=0;orthogonalLoop=1;jettySize=auto;html=1;endArrow=block;endFill=0;" parent="WIyWlLk6GJQsqaUBKTNV-1" source="MUtRLJ9FbJs_X8TziB0Y-230" target="MUtRLJ9FbJs_X8TziB0Y-228" edge="1">
          <mxGeometry relative="1" as="geometry">
            <mxPoint x="-1000.0000000000002" y="820" as="sourcePoint" />
            <Array as="points">
              <mxPoint x="-980" y="800" />
              <mxPoint x="-1220" y="800" />
            </Array>
          </mxGeometry>
        </mxCell>
        <mxCell id="MUtRLJ9FbJs_X8TziB0Y-228" value="&lt;i&gt;King&lt;/i&gt;" style="swimlane;fontStyle=1;align=center;verticalAlign=top;childLayout=stackLayout;horizontal=1;startSize=26;horizontalStack=0;resizeParent=1;resizeParentMax=0;resizeLast=0;collapsible=1;marginBottom=0;whiteSpace=wrap;html=1;" parent="WIyWlLk6GJQsqaUBKTNV-1" vertex="1">
          <mxGeometry x="-1280" y="830" width="120" height="34" as="geometry" />
        </mxCell>
        <mxCell id="MUtRLJ9FbJs_X8TziB0Y-229" value="" style="line;strokeWidth=1;fillColor=none;align=left;verticalAlign=middle;spacingTop=-1;spacingLeft=3;spacingRight=3;rotatable=0;labelPosition=right;points=[];portConstraint=eastwest;strokeColor=inherit;" parent="MUtRLJ9FbJs_X8TziB0Y-228" vertex="1">
          <mxGeometry y="26" width="120" height="8" as="geometry" />
        </mxCell>
        <mxCell id="MUtRLJ9FbJs_X8TziB0Y-230" value="" style="shape=waypoint;sketch=0;size=6;pointerEvents=1;points=[];fillColor=none;resizable=0;rotatable=0;perimeter=centerPerimeter;snapToPoint=1;" parent="WIyWlLk6GJQsqaUBKTNV-1" vertex="1">
          <mxGeometry x="-990" y="805" width="20" height="20" as="geometry" />
        </mxCell>
        <mxCell id="MUtRLJ9FbJs_X8TziB0Y-231" style="edgeStyle=orthogonalEdgeStyle;rounded=0;orthogonalLoop=1;jettySize=auto;html=1;entryX=0.575;entryY=0.975;entryDx=0;entryDy=0;entryPerimeter=0;endArrow=none;endFill=0;" parent="WIyWlLk6GJQsqaUBKTNV-1" source="MUtRLJ9FbJs_X8TziB0Y-223" target="MUtRLJ9FbJs_X8TziB0Y-230" edge="1">
          <mxGeometry relative="1" as="geometry">
            <Array as="points">
              <mxPoint x="-900" y="815" />
            </Array>
          </mxGeometry>
        </mxCell>
        <mxCell id="MUtRLJ9FbJs_X8TziB0Y-232" style="edgeStyle=orthogonalEdgeStyle;rounded=0;orthogonalLoop=1;jettySize=auto;html=1;entryX=0.6;entryY=0.675;entryDx=0;entryDy=0;entryPerimeter=0;endArrow=none;endFill=0;" parent="WIyWlLk6GJQsqaUBKTNV-1" source="MUtRLJ9FbJs_X8TziB0Y-225" target="MUtRLJ9FbJs_X8TziB0Y-230" edge="1">
          <mxGeometry relative="1" as="geometry">
            <Array as="points">
              <mxPoint x="-1060" y="815" />
            </Array>
          </mxGeometry>
        </mxCell>
        <mxCell id="MUtRLJ9FbJs_X8TziB0Y-233" value="AdvancedQueen" style="swimlane;fontStyle=1;align=center;verticalAlign=top;childLayout=stackLayout;horizontal=1;startSize=26;horizontalStack=0;resizeParent=1;resizeParentMax=0;resizeLast=0;collapsible=1;marginBottom=0;whiteSpace=wrap;html=1;" parent="WIyWlLk6GJQsqaUBKTNV-1" vertex="1">
          <mxGeometry x="-960" y="910" width="120" height="34" as="geometry" />
        </mxCell>
        <mxCell id="MUtRLJ9FbJs_X8TziB0Y-234" value="" style="line;strokeWidth=1;fillColor=none;align=left;verticalAlign=middle;spacingTop=-1;spacingLeft=3;spacingRight=3;rotatable=0;labelPosition=right;points=[];portConstraint=eastwest;strokeColor=inherit;" parent="MUtRLJ9FbJs_X8TziB0Y-233" vertex="1">
          <mxGeometry y="26" width="120" height="8" as="geometry" />
        </mxCell>
        <mxCell id="MUtRLJ9FbJs_X8TziB0Y-235" value="BasicQueen" style="swimlane;fontStyle=1;align=center;verticalAlign=top;childLayout=stackLayout;horizontal=1;startSize=26;horizontalStack=0;resizeParent=1;resizeParentMax=0;resizeLast=0;collapsible=1;marginBottom=0;whiteSpace=wrap;html=1;" parent="WIyWlLk6GJQsqaUBKTNV-1" vertex="1">
          <mxGeometry x="-1120" y="910" width="120" height="34" as="geometry" />
        </mxCell>
        <mxCell id="MUtRLJ9FbJs_X8TziB0Y-236" value="" style="line;strokeWidth=1;fillColor=none;align=left;verticalAlign=middle;spacingTop=-1;spacingLeft=3;spacingRight=3;rotatable=0;labelPosition=right;points=[];portConstraint=eastwest;strokeColor=inherit;" parent="MUtRLJ9FbJs_X8TziB0Y-235" vertex="1">
          <mxGeometry y="26" width="120" height="8" as="geometry" />
        </mxCell>
        <mxCell id="MUtRLJ9FbJs_X8TziB0Y-237" style="edgeStyle=orthogonalEdgeStyle;rounded=0;orthogonalLoop=1;jettySize=auto;html=1;endArrow=block;endFill=0;" parent="WIyWlLk6GJQsqaUBKTNV-1" source="MUtRLJ9FbJs_X8TziB0Y-240" target="MUtRLJ9FbJs_X8TziB0Y-238" edge="1">
          <mxGeometry relative="1" as="geometry">
            <mxPoint x="-1000.0000000000002" y="900" as="sourcePoint" />
            <Array as="points">
              <mxPoint x="-980" y="880" />
              <mxPoint x="-1220" y="880" />
            </Array>
          </mxGeometry>
        </mxCell>
        <mxCell id="MUtRLJ9FbJs_X8TziB0Y-238" value="&lt;i&gt;Queen&lt;/i&gt;" style="swimlane;fontStyle=1;align=center;verticalAlign=top;childLayout=stackLayout;horizontal=1;startSize=26;horizontalStack=0;resizeParent=1;resizeParentMax=0;resizeLast=0;collapsible=1;marginBottom=0;whiteSpace=wrap;html=1;" parent="WIyWlLk6GJQsqaUBKTNV-1" vertex="1">
          <mxGeometry x="-1280" y="910" width="120" height="34" as="geometry" />
        </mxCell>
        <mxCell id="MUtRLJ9FbJs_X8TziB0Y-239" value="" style="line;strokeWidth=1;fillColor=none;align=left;verticalAlign=middle;spacingTop=-1;spacingLeft=3;spacingRight=3;rotatable=0;labelPosition=right;points=[];portConstraint=eastwest;strokeColor=inherit;" parent="MUtRLJ9FbJs_X8TziB0Y-238" vertex="1">
          <mxGeometry y="26" width="120" height="8" as="geometry" />
        </mxCell>
        <mxCell id="MUtRLJ9FbJs_X8TziB0Y-240" value="" style="shape=waypoint;sketch=0;size=6;pointerEvents=1;points=[];fillColor=none;resizable=0;rotatable=0;perimeter=centerPerimeter;snapToPoint=1;" parent="WIyWlLk6GJQsqaUBKTNV-1" vertex="1">
          <mxGeometry x="-990" y="885" width="20" height="20" as="geometry" />
        </mxCell>
        <mxCell id="MUtRLJ9FbJs_X8TziB0Y-241" style="edgeStyle=orthogonalEdgeStyle;rounded=0;orthogonalLoop=1;jettySize=auto;html=1;entryX=0.575;entryY=0.975;entryDx=0;entryDy=0;entryPerimeter=0;endArrow=none;endFill=0;" parent="WIyWlLk6GJQsqaUBKTNV-1" source="MUtRLJ9FbJs_X8TziB0Y-233" target="MUtRLJ9FbJs_X8TziB0Y-240" edge="1">
          <mxGeometry relative="1" as="geometry">
            <Array as="points">
              <mxPoint x="-900" y="895" />
            </Array>
          </mxGeometry>
        </mxCell>
        <mxCell id="MUtRLJ9FbJs_X8TziB0Y-242" style="edgeStyle=orthogonalEdgeStyle;rounded=0;orthogonalLoop=1;jettySize=auto;html=1;entryX=0.6;entryY=0.675;entryDx=0;entryDy=0;entryPerimeter=0;endArrow=none;endFill=0;" parent="WIyWlLk6GJQsqaUBKTNV-1" source="MUtRLJ9FbJs_X8TziB0Y-235" target="MUtRLJ9FbJs_X8TziB0Y-240" edge="1">
          <mxGeometry relative="1" as="geometry">
            <Array as="points">
              <mxPoint x="-1060" y="895" />
            </Array>
          </mxGeometry>
        </mxCell>
        <mxCell id="MUtRLJ9FbJs_X8TziB0Y-243" value="AdvancedRook" style="swimlane;fontStyle=1;align=center;verticalAlign=top;childLayout=stackLayout;horizontal=1;startSize=26;horizontalStack=0;resizeParent=1;resizeParentMax=0;resizeLast=0;collapsible=1;marginBottom=0;whiteSpace=wrap;html=1;" parent="WIyWlLk6GJQsqaUBKTNV-1" vertex="1">
          <mxGeometry x="-960" y="990" width="120" height="34" as="geometry" />
        </mxCell>
        <mxCell id="MUtRLJ9FbJs_X8TziB0Y-244" value="" style="line;strokeWidth=1;fillColor=none;align=left;verticalAlign=middle;spacingTop=-1;spacingLeft=3;spacingRight=3;rotatable=0;labelPosition=right;points=[];portConstraint=eastwest;strokeColor=inherit;" parent="MUtRLJ9FbJs_X8TziB0Y-243" vertex="1">
          <mxGeometry y="26" width="120" height="8" as="geometry" />
        </mxCell>
        <mxCell id="MUtRLJ9FbJs_X8TziB0Y-245" value="BasicRook" style="swimlane;fontStyle=1;align=center;verticalAlign=top;childLayout=stackLayout;horizontal=1;startSize=26;horizontalStack=0;resizeParent=1;resizeParentMax=0;resizeLast=0;collapsible=1;marginBottom=0;whiteSpace=wrap;html=1;" parent="WIyWlLk6GJQsqaUBKTNV-1" vertex="1">
          <mxGeometry x="-1120" y="990" width="120" height="34" as="geometry" />
        </mxCell>
        <mxCell id="MUtRLJ9FbJs_X8TziB0Y-246" value="" style="line;strokeWidth=1;fillColor=none;align=left;verticalAlign=middle;spacingTop=-1;spacingLeft=3;spacingRight=3;rotatable=0;labelPosition=right;points=[];portConstraint=eastwest;strokeColor=inherit;" parent="MUtRLJ9FbJs_X8TziB0Y-245" vertex="1">
          <mxGeometry y="26" width="120" height="8" as="geometry" />
        </mxCell>
        <mxCell id="MUtRLJ9FbJs_X8TziB0Y-247" style="edgeStyle=orthogonalEdgeStyle;rounded=0;orthogonalLoop=1;jettySize=auto;html=1;endArrow=block;endFill=0;" parent="WIyWlLk6GJQsqaUBKTNV-1" source="MUtRLJ9FbJs_X8TziB0Y-250" target="MUtRLJ9FbJs_X8TziB0Y-248" edge="1">
          <mxGeometry relative="1" as="geometry">
            <mxPoint x="-1000.0000000000002" y="980" as="sourcePoint" />
            <Array as="points">
              <mxPoint x="-980" y="960" />
              <mxPoint x="-1220" y="960" />
            </Array>
          </mxGeometry>
        </mxCell>
        <mxCell id="MUtRLJ9FbJs_X8TziB0Y-248" value="&lt;i&gt;Rook&lt;/i&gt;" style="swimlane;fontStyle=1;align=center;verticalAlign=top;childLayout=stackLayout;horizontal=1;startSize=26;horizontalStack=0;resizeParent=1;resizeParentMax=0;resizeLast=0;collapsible=1;marginBottom=0;whiteSpace=wrap;html=1;" parent="WIyWlLk6GJQsqaUBKTNV-1" vertex="1">
          <mxGeometry x="-1280" y="990" width="120" height="34" as="geometry" />
        </mxCell>
        <mxCell id="MUtRLJ9FbJs_X8TziB0Y-249" value="" style="line;strokeWidth=1;fillColor=none;align=left;verticalAlign=middle;spacingTop=-1;spacingLeft=3;spacingRight=3;rotatable=0;labelPosition=right;points=[];portConstraint=eastwest;strokeColor=inherit;" parent="MUtRLJ9FbJs_X8TziB0Y-248" vertex="1">
          <mxGeometry y="26" width="120" height="8" as="geometry" />
        </mxCell>
        <mxCell id="MUtRLJ9FbJs_X8TziB0Y-250" value="" style="shape=waypoint;sketch=0;size=6;pointerEvents=1;points=[];fillColor=none;resizable=0;rotatable=0;perimeter=centerPerimeter;snapToPoint=1;" parent="WIyWlLk6GJQsqaUBKTNV-1" vertex="1">
          <mxGeometry x="-990" y="965" width="20" height="20" as="geometry" />
        </mxCell>
        <mxCell id="MUtRLJ9FbJs_X8TziB0Y-251" style="edgeStyle=orthogonalEdgeStyle;rounded=0;orthogonalLoop=1;jettySize=auto;html=1;entryX=0.575;entryY=0.975;entryDx=0;entryDy=0;entryPerimeter=0;endArrow=none;endFill=0;" parent="WIyWlLk6GJQsqaUBKTNV-1" source="MUtRLJ9FbJs_X8TziB0Y-243" target="MUtRLJ9FbJs_X8TziB0Y-250" edge="1">
          <mxGeometry relative="1" as="geometry">
            <Array as="points">
              <mxPoint x="-900" y="975" />
            </Array>
          </mxGeometry>
        </mxCell>
        <mxCell id="MUtRLJ9FbJs_X8TziB0Y-252" style="edgeStyle=orthogonalEdgeStyle;rounded=0;orthogonalLoop=1;jettySize=auto;html=1;entryX=0.6;entryY=0.675;entryDx=0;entryDy=0;entryPerimeter=0;endArrow=none;endFill=0;" parent="WIyWlLk6GJQsqaUBKTNV-1" source="MUtRLJ9FbJs_X8TziB0Y-245" target="MUtRLJ9FbJs_X8TziB0Y-250" edge="1">
          <mxGeometry relative="1" as="geometry">
            <Array as="points">
              <mxPoint x="-1060" y="975" />
            </Array>
          </mxGeometry>
        </mxCell>
        <mxCell id="MUtRLJ9FbJs_X8TziB0Y-253" value="" style="shape=waypoint;sketch=0;size=6;pointerEvents=1;points=[];fillColor=none;resizable=0;rotatable=0;perimeter=centerPerimeter;snapToPoint=1;" parent="WIyWlLk6GJQsqaUBKTNV-1" vertex="1">
          <mxGeometry x="-1370" y="597" width="20" height="20" as="geometry" />
        </mxCell>
        <mxCell id="MUtRLJ9FbJs_X8TziB0Y-254" style="edgeStyle=orthogonalEdgeStyle;rounded=0;orthogonalLoop=1;jettySize=auto;html=1;entryX=0.526;entryY=0.771;entryDx=0;entryDy=0;entryPerimeter=0;endArrow=none;endFill=0;" parent="WIyWlLk6GJQsqaUBKTNV-1" source="MUtRLJ9FbJs_X8TziB0Y-208" target="MUtRLJ9FbJs_X8TziB0Y-253" edge="1">
          <mxGeometry relative="1" as="geometry" />
        </mxCell>
        <mxCell id="MUtRLJ9FbJs_X8TziB0Y-255" style="edgeStyle=orthogonalEdgeStyle;rounded=0;orthogonalLoop=1;jettySize=auto;html=1;entryX=0.526;entryY=0.832;entryDx=0;entryDy=0;entryPerimeter=0;endArrow=none;endFill=0;" parent="WIyWlLk6GJQsqaUBKTNV-1" source="MUtRLJ9FbJs_X8TziB0Y-167" target="MUtRLJ9FbJs_X8TziB0Y-253" edge="1">
          <mxGeometry relative="1" as="geometry" />
        </mxCell>
        <mxCell id="MUtRLJ9FbJs_X8TziB0Y-256" style="edgeStyle=orthogonalEdgeStyle;rounded=0;orthogonalLoop=1;jettySize=auto;html=1;entryX=0.283;entryY=0.589;entryDx=0;entryDy=0;entryPerimeter=0;endArrow=none;endFill=0;" parent="WIyWlLk6GJQsqaUBKTNV-1" source="MUtRLJ9FbJs_X8TziB0Y-218" target="MUtRLJ9FbJs_X8TziB0Y-253" edge="1">
          <mxGeometry relative="1" as="geometry" />
        </mxCell>
        <mxCell id="MUtRLJ9FbJs_X8TziB0Y-257" style="edgeStyle=orthogonalEdgeStyle;rounded=0;orthogonalLoop=1;jettySize=auto;html=1;entryX=1;entryY=0.65;entryDx=0;entryDy=0;entryPerimeter=0;endArrow=none;endFill=0;" parent="WIyWlLk6GJQsqaUBKTNV-1" source="MUtRLJ9FbJs_X8TziB0Y-228" target="MUtRLJ9FbJs_X8TziB0Y-253" edge="1">
          <mxGeometry relative="1" as="geometry" />
        </mxCell>
        <mxCell id="MUtRLJ9FbJs_X8TziB0Y-259" style="edgeStyle=orthogonalEdgeStyle;rounded=0;orthogonalLoop=1;jettySize=auto;html=1;entryX=0.829;entryY=0.438;entryDx=0;entryDy=0;entryPerimeter=0;endArrow=none;endFill=0;" parent="WIyWlLk6GJQsqaUBKTNV-1" source="MUtRLJ9FbJs_X8TziB0Y-238" target="MUtRLJ9FbJs_X8TziB0Y-253" edge="1">
          <mxGeometry relative="1" as="geometry" />
        </mxCell>
        <mxCell id="MUtRLJ9FbJs_X8TziB0Y-260" style="edgeStyle=orthogonalEdgeStyle;rounded=0;orthogonalLoop=1;jettySize=auto;html=1;entryX=0.192;entryY=0.559;entryDx=0;entryDy=0;entryPerimeter=0;endArrow=none;endFill=0;" parent="WIyWlLk6GJQsqaUBKTNV-1" source="MUtRLJ9FbJs_X8TziB0Y-248" target="MUtRLJ9FbJs_X8TziB0Y-253" edge="1">
          <mxGeometry relative="1" as="geometry" />
        </mxCell>
        <mxCell id="MUtRLJ9FbJs_X8TziB0Y-261" style="edgeStyle=orthogonalEdgeStyle;rounded=0;orthogonalLoop=1;jettySize=auto;html=1;entryX=0;entryY=0.773;entryDx=0;entryDy=0;entryPerimeter=0;endArrow=block;endFill=0;" parent="WIyWlLk6GJQsqaUBKTNV-1" source="MUtRLJ9FbJs_X8TziB0Y-253" target="MUtRLJ9FbJs_X8TziB0Y-92" edge="1">
          <mxGeometry relative="1" as="geometry" />
        </mxCell>
        <mxCell id="MUtRLJ9FbJs_X8TziB0Y-263" style="edgeStyle=orthogonalEdgeStyle;rounded=0;orthogonalLoop=1;jettySize=auto;html=1;entryX=1;entryY=0.538;entryDx=0;entryDy=0;entryPerimeter=0;endArrow=block;endFill=0;" parent="WIyWlLk6GJQsqaUBKTNV-1" source="MUtRLJ9FbJs_X8TziB0Y-129" target="MUtRLJ9FbJs_X8TziB0Y-88" edge="1">
          <mxGeometry relative="1" as="geometry" />
        </mxCell>
        <mxCell id="MUtRLJ9FbJs_X8TziB0Y-264" value="&lt;i&gt;BoardMove&lt;/i&gt;" style="swimlane;fontStyle=1;align=center;verticalAlign=top;childLayout=stackLayout;horizontal=1;startSize=26;horizontalStack=0;resizeParent=1;resizeParentMax=0;resizeLast=0;collapsible=1;marginBottom=0;whiteSpace=wrap;html=1;" parent="WIyWlLk6GJQsqaUBKTNV-1" vertex="1">
          <mxGeometry x="-240" y="990" width="280" height="330" as="geometry" />
        </mxCell>
        <mxCell id="MUtRLJ9FbJs_X8TziB0Y-265" value="- fromSquare: BoardSquare&lt;br&gt;- toSquare: BoardSquare&lt;br&gt;- captureSquare: BoardSquare&lt;br&gt;- doesEnableEnpassant: bool&lt;br&gt;- movedPieceDate: PieceData&lt;br&gt;- capturedPieceDate: PieceData?" style="text;strokeColor=none;fillColor=none;align=left;verticalAlign=top;spacingLeft=4;spacingRight=4;overflow=hidden;rotatable=0;points=[[0,0.5],[1,0.5]];portConstraint=eastwest;whiteSpace=wrap;html=1;" parent="MUtRLJ9FbJs_X8TziB0Y-264" vertex="1">
          <mxGeometry y="26" width="280" height="94" as="geometry" />
        </mxCell>
        <mxCell id="MUtRLJ9FbJs_X8TziB0Y-266" value="" style="line;strokeWidth=1;fillColor=none;align=left;verticalAlign=middle;spacingTop=-1;spacingLeft=3;spacingRight=3;rotatable=0;labelPosition=right;points=[];portConstraint=eastwest;strokeColor=inherit;" parent="MUtRLJ9FbJs_X8TziB0Y-264" vertex="1">
          <mxGeometry y="120" width="280" height="8" as="geometry" />
        </mxCell>
        <mxCell id="MUtRLJ9FbJs_X8TziB0Y-267" value="&lt;i&gt;+ clone(): BoardMove&lt;/i&gt;&lt;br&gt;&lt;br&gt;&lt;i&gt;+ makeBoardMove(ChessBoard): void&lt;/i&gt;&lt;br&gt;&lt;i&gt;+ undoBoardMove(ChessBoard): void&lt;/i&gt;&lt;br&gt;&lt;br&gt;&lt;i&gt;+ getPromotionPieceType(): PieceType?&lt;/i&gt;&lt;br&gt;&lt;br&gt;+ getFromSquare(): BoardSquare&lt;br&gt;+ getToSquare(): BoardSquare&lt;br&gt;+ getCaptureSquare(): BoardSquare&lt;br&gt;+ getDoesEnableEnpassant(): bool&lt;br&gt;+ getMovedPieceData(): PieceData&lt;br&gt;+ getCapturedPieceData(): PieceData?" style="text;strokeColor=none;fillColor=none;align=left;verticalAlign=top;spacingLeft=4;spacingRight=4;overflow=hidden;rotatable=0;points=[[0,0.5],[1,0.5]];portConstraint=eastwest;whiteSpace=wrap;html=1;" parent="MUtRLJ9FbJs_X8TziB0Y-264" vertex="1">
          <mxGeometry y="128" width="280" height="202" as="geometry" />
        </mxCell>
        <mxCell id="MUtRLJ9FbJs_X8TziB0Y-272" value="PromotionBoardMove" style="swimlane;fontStyle=1;align=center;verticalAlign=top;childLayout=stackLayout;horizontal=1;startSize=26;horizontalStack=0;resizeParent=1;resizeParentMax=0;resizeLast=0;collapsible=1;marginBottom=0;whiteSpace=wrap;html=1;" parent="WIyWlLk6GJQsqaUBKTNV-1" vertex="1">
          <mxGeometry x="120" y="1190" width="240" height="58" as="geometry" />
        </mxCell>
        <mxCell id="MUtRLJ9FbJs_X8TziB0Y-273" value="- promotionPieceType: PieceType" style="text;strokeColor=none;fillColor=none;align=left;verticalAlign=top;spacingLeft=4;spacingRight=4;overflow=hidden;rotatable=0;points=[[0,0.5],[1,0.5]];portConstraint=eastwest;whiteSpace=wrap;html=1;" parent="MUtRLJ9FbJs_X8TziB0Y-272" vertex="1">
          <mxGeometry y="26" width="240" height="24" as="geometry" />
        </mxCell>
        <mxCell id="MUtRLJ9FbJs_X8TziB0Y-274" value="" style="line;strokeWidth=1;fillColor=none;align=left;verticalAlign=middle;spacingTop=-1;spacingLeft=3;spacingRight=3;rotatable=0;labelPosition=right;points=[];portConstraint=eastwest;strokeColor=inherit;" parent="MUtRLJ9FbJs_X8TziB0Y-272" vertex="1">
          <mxGeometry y="50" width="240" height="8" as="geometry" />
        </mxCell>
        <mxCell id="MUtRLJ9FbJs_X8TziB0Y-276" value="CastleBoardMove" style="swimlane;fontStyle=1;align=center;verticalAlign=top;childLayout=stackLayout;horizontal=1;startSize=26;horizontalStack=0;resizeParent=1;resizeParentMax=0;resizeLast=0;collapsible=1;marginBottom=0;whiteSpace=wrap;html=1;" parent="WIyWlLk6GJQsqaUBKTNV-1" vertex="1">
          <mxGeometry x="120" y="1110" width="240" height="68" as="geometry" />
        </mxCell>
        <mxCell id="MUtRLJ9FbJs_X8TziB0Y-277" value="- rookFromSquare: BoardSquare&lt;br&gt;- rookToSquare: BoardSquare" style="text;strokeColor=none;fillColor=none;align=left;verticalAlign=top;spacingLeft=4;spacingRight=4;overflow=hidden;rotatable=0;points=[[0,0.5],[1,0.5]];portConstraint=eastwest;whiteSpace=wrap;html=1;" parent="MUtRLJ9FbJs_X8TziB0Y-276" vertex="1">
          <mxGeometry y="26" width="240" height="34" as="geometry" />
        </mxCell>
        <mxCell id="MUtRLJ9FbJs_X8TziB0Y-278" value="" style="line;strokeWidth=1;fillColor=none;align=left;verticalAlign=middle;spacingTop=-1;spacingLeft=3;spacingRight=3;rotatable=0;labelPosition=right;points=[];portConstraint=eastwest;strokeColor=inherit;" parent="MUtRLJ9FbJs_X8TziB0Y-276" vertex="1">
          <mxGeometry y="60" width="240" height="8" as="geometry" />
        </mxCell>
        <mxCell id="MUtRLJ9FbJs_X8TziB0Y-281" value="" style="shape=waypoint;sketch=0;size=6;pointerEvents=1;points=[];fillColor=none;resizable=0;rotatable=0;perimeter=centerPerimeter;snapToPoint=1;" parent="WIyWlLk6GJQsqaUBKTNV-1" vertex="1">
          <mxGeometry x="70" y="1200" width="20" height="20" as="geometry" />
        </mxCell>
        <mxCell id="MUtRLJ9FbJs_X8TziB0Y-282" value="StandardBoardMove" style="swimlane;fontStyle=1;align=center;verticalAlign=top;childLayout=stackLayout;horizontal=1;startSize=26;horizontalStack=0;resizeParent=1;resizeParentMax=0;resizeLast=0;collapsible=1;marginBottom=0;whiteSpace=wrap;html=1;" parent="WIyWlLk6GJQsqaUBKTNV-1" vertex="1">
          <mxGeometry x="120" y="1270" width="240" height="34" as="geometry" />
        </mxCell>
        <mxCell id="MUtRLJ9FbJs_X8TziB0Y-284" value="" style="line;strokeWidth=1;fillColor=none;align=left;verticalAlign=middle;spacingTop=-1;spacingLeft=3;spacingRight=3;rotatable=0;labelPosition=right;points=[];portConstraint=eastwest;strokeColor=inherit;" parent="MUtRLJ9FbJs_X8TziB0Y-282" vertex="1">
          <mxGeometry y="26" width="240" height="8" as="geometry" />
        </mxCell>
        <mxCell id="MUtRLJ9FbJs_X8TziB0Y-287" style="edgeStyle=orthogonalEdgeStyle;rounded=0;orthogonalLoop=1;jettySize=auto;html=1;entryX=0.525;entryY=0.75;entryDx=0;entryDy=0;entryPerimeter=0;endArrow=none;endFill=0;" parent="WIyWlLk6GJQsqaUBKTNV-1" source="MUtRLJ9FbJs_X8TziB0Y-282" target="MUtRLJ9FbJs_X8TziB0Y-281" edge="1">
          <mxGeometry relative="1" as="geometry" />
        </mxCell>
        <mxCell id="MUtRLJ9FbJs_X8TziB0Y-288" style="edgeStyle=orthogonalEdgeStyle;rounded=0;orthogonalLoop=1;jettySize=auto;html=1;exitX=0;exitY=0.25;exitDx=0;exitDy=0;entryX=0.65;entryY=0.375;entryDx=0;entryDy=0;entryPerimeter=0;endArrow=none;endFill=0;" parent="WIyWlLk6GJQsqaUBKTNV-1" source="MUtRLJ9FbJs_X8TziB0Y-276" target="MUtRLJ9FbJs_X8TziB0Y-281" edge="1">
          <mxGeometry relative="1" as="geometry" />
        </mxCell>
        <mxCell id="MUtRLJ9FbJs_X8TziB0Y-290" style="edgeStyle=orthogonalEdgeStyle;rounded=0;orthogonalLoop=1;jettySize=auto;html=1;entryX=0;entryY=0.345;entryDx=0;entryDy=0;entryPerimeter=0;endArrow=none;endFill=0;" parent="WIyWlLk6GJQsqaUBKTNV-1" source="MUtRLJ9FbJs_X8TziB0Y-281" target="MUtRLJ9FbJs_X8TziB0Y-272" edge="1">
          <mxGeometry relative="1" as="geometry" />
        </mxCell>
        <mxCell id="MUtRLJ9FbJs_X8TziB0Y-293" value="BoardMoveFactory" style="swimlane;fontStyle=1;align=center;verticalAlign=top;childLayout=stackLayout;horizontal=1;startSize=26;horizontalStack=0;resizeParent=1;resizeParentMax=0;resizeLast=0;collapsible=1;marginBottom=0;whiteSpace=wrap;html=1;" parent="WIyWlLk6GJQsqaUBKTNV-1" vertex="1">
          <mxGeometry x="480" y="1100" width="760" height="100" as="geometry" />
        </mxCell>
        <mxCell id="MUtRLJ9FbJs_X8TziB0Y-295" value="" style="line;strokeWidth=1;fillColor=none;align=left;verticalAlign=middle;spacingTop=-1;spacingLeft=3;spacingRight=3;rotatable=0;labelPosition=right;points=[];portConstraint=eastwest;strokeColor=inherit;" parent="MUtRLJ9FbJs_X8TziB0Y-293" vertex="1">
          <mxGeometry y="26" width="760" height="8" as="geometry" />
        </mxCell>
        <mxCell id="MUtRLJ9FbJs_X8TziB0Y-296" value="+ createCastleMove(BoardSquare, BoardSquare, BoardSquare, bool, PieceData, PieceData?): BoardMove&lt;br&gt;+ createPromotionMove(BoardSquare, BoardSquare, BoardSquare, PieceType, bool, PieceData, PieceData?): BoardMove&lt;br&gt;+ createStandardMove(BoardSquare, BoardSquare, BoardSquare, BoardSquare, BoardSquare, bool, PieceData, PieceData?): BoardMove" style="text;strokeColor=none;fillColor=none;align=left;verticalAlign=top;spacingLeft=4;spacingRight=4;overflow=hidden;rotatable=0;points=[[0,0.5],[1,0.5]];portConstraint=eastwest;whiteSpace=wrap;html=1;" parent="MUtRLJ9FbJs_X8TziB0Y-293" vertex="1">
          <mxGeometry y="34" width="760" height="66" as="geometry" />
        </mxCell>
        <mxCell id="MUtRLJ9FbJs_X8TziB0Y-297" value="PieceFactory" style="swimlane;fontStyle=1;align=center;verticalAlign=top;childLayout=stackLayout;horizontal=1;startSize=26;horizontalStack=0;resizeParent=1;resizeParentMax=0;resizeLast=0;collapsible=1;marginBottom=0;whiteSpace=wrap;html=1;" parent="WIyWlLk6GJQsqaUBKTNV-1" vertex="1">
          <mxGeometry x="480" y="1220" width="200" height="60" as="geometry" />
        </mxCell>
        <mxCell id="MUtRLJ9FbJs_X8TziB0Y-299" value="" style="line;strokeWidth=1;fillColor=none;align=left;verticalAlign=middle;spacingTop=-1;spacingLeft=3;spacingRight=3;rotatable=0;labelPosition=right;points=[];portConstraint=eastwest;strokeColor=inherit;" parent="MUtRLJ9FbJs_X8TziB0Y-297" vertex="1">
          <mxGeometry y="26" width="200" height="8" as="geometry" />
        </mxCell>
        <mxCell id="MUtRLJ9FbJs_X8TziB0Y-300" value="+ createPiece(PieceData): Piece" style="text;strokeColor=none;fillColor=none;align=left;verticalAlign=top;spacingLeft=4;spacingRight=4;overflow=hidden;rotatable=0;points=[[0,0.5],[1,0.5]];portConstraint=eastwest;whiteSpace=wrap;html=1;" parent="MUtRLJ9FbJs_X8TziB0Y-297" vertex="1">
          <mxGeometry y="34" width="200" height="26" as="geometry" />
        </mxCell>
        <mxCell id="MUtRLJ9FbJs_X8TziB0Y-301" value="BasicPieceFactory" style="swimlane;fontStyle=1;align=center;verticalAlign=top;childLayout=stackLayout;horizontal=1;startSize=26;horizontalStack=0;resizeParent=1;resizeParentMax=0;resizeLast=0;collapsible=1;marginBottom=0;whiteSpace=wrap;html=1;" parent="WIyWlLk6GJQsqaUBKTNV-1" vertex="1">
          <mxGeometry x="760" y="1220" width="200" height="60" as="geometry" />
        </mxCell>
        <mxCell id="MUtRLJ9FbJs_X8TziB0Y-303" value="" style="line;strokeWidth=1;fillColor=none;align=left;verticalAlign=middle;spacingTop=-1;spacingLeft=3;spacingRight=3;rotatable=0;labelPosition=right;points=[];portConstraint=eastwest;strokeColor=inherit;" parent="MUtRLJ9FbJs_X8TziB0Y-301" vertex="1">
          <mxGeometry y="26" width="200" height="8" as="geometry" />
        </mxCell>
        <mxCell id="MUtRLJ9FbJs_X8TziB0Y-304" value="+ createPiece(PieceData): Piece" style="text;strokeColor=none;fillColor=none;align=left;verticalAlign=top;spacingLeft=4;spacingRight=4;overflow=hidden;rotatable=0;points=[[0,0.5],[1,0.5]];portConstraint=eastwest;whiteSpace=wrap;html=1;" parent="MUtRLJ9FbJs_X8TziB0Y-301" vertex="1">
          <mxGeometry y="34" width="200" height="26" as="geometry" />
        </mxCell>
        <mxCell id="MUtRLJ9FbJs_X8TziB0Y-305" value="AdvancedPieceFactory" style="swimlane;fontStyle=1;align=center;verticalAlign=top;childLayout=stackLayout;horizontal=1;startSize=26;horizontalStack=0;resizeParent=1;resizeParentMax=0;resizeLast=0;collapsible=1;marginBottom=0;whiteSpace=wrap;html=1;" parent="WIyWlLk6GJQsqaUBKTNV-1" vertex="1">
          <mxGeometry x="1040" y="1220" width="200" height="60" as="geometry" />
        </mxCell>
        <mxCell id="MUtRLJ9FbJs_X8TziB0Y-307" value="" style="line;strokeWidth=1;fillColor=none;align=left;verticalAlign=middle;spacingTop=-1;spacingLeft=3;spacingRight=3;rotatable=0;labelPosition=right;points=[];portConstraint=eastwest;strokeColor=inherit;" parent="MUtRLJ9FbJs_X8TziB0Y-305" vertex="1">
          <mxGeometry y="26" width="200" height="8" as="geometry" />
        </mxCell>
        <mxCell id="MUtRLJ9FbJs_X8TziB0Y-308" value="+ createPiece(PieceData): Piece" style="text;strokeColor=none;fillColor=none;align=left;verticalAlign=top;spacingLeft=4;spacingRight=4;overflow=hidden;rotatable=0;points=[[0,0.5],[1,0.5]];portConstraint=eastwest;whiteSpace=wrap;html=1;" parent="MUtRLJ9FbJs_X8TziB0Y-305" vertex="1">
          <mxGeometry y="34" width="200" height="26" as="geometry" />
        </mxCell>
        <mxCell id="MUtRLJ9FbJs_X8TziB0Y-309" value="ComputerPlayerFactory" style="swimlane;fontStyle=1;align=center;verticalAlign=top;childLayout=stackLayout;horizontal=1;startSize=26;horizontalStack=0;resizeParent=1;resizeParentMax=0;resizeLast=0;collapsible=1;marginBottom=0;whiteSpace=wrap;html=1;" parent="WIyWlLk6GJQsqaUBKTNV-1" vertex="1">
          <mxGeometry x="480" y="1020" width="360" height="60" as="geometry" />
        </mxCell>
        <mxCell id="MUtRLJ9FbJs_X8TziB0Y-311" value="" style="line;strokeWidth=1;fillColor=none;align=left;verticalAlign=middle;spacingTop=-1;spacingLeft=3;spacingRight=3;rotatable=0;labelPosition=right;points=[];portConstraint=eastwest;strokeColor=inherit;" parent="MUtRLJ9FbJs_X8TziB0Y-309" vertex="1">
          <mxGeometry y="26" width="360" height="8" as="geometry" />
        </mxCell>
        <mxCell id="MUtRLJ9FbJs_X8TziB0Y-312" value="+ createComputerPlayer(ComputerPlayerLevel): ComputerPlayer" style="text;strokeColor=none;fillColor=none;align=left;verticalAlign=top;spacingLeft=4;spacingRight=4;overflow=hidden;rotatable=0;points=[[0,0.5],[1,0.5]];portConstraint=eastwest;whiteSpace=wrap;html=1;" parent="MUtRLJ9FbJs_X8TziB0Y-309" vertex="1">
          <mxGeometry y="34" width="360" height="26" as="geometry" />
        </mxCell>
        <mxCell id="MUtRLJ9FbJs_X8TziB0Y-313" value="ChessBoardFactory" style="swimlane;fontStyle=1;align=center;verticalAlign=top;childLayout=stackLayout;horizontal=1;startSize=26;horizontalStack=0;resizeParent=1;resizeParentMax=0;resizeLast=0;collapsible=1;marginBottom=0;whiteSpace=wrap;html=1;" parent="WIyWlLk6GJQsqaUBKTNV-1" vertex="1">
          <mxGeometry x="480" y="840" width="360" height="60" as="geometry" />
        </mxCell>
        <mxCell id="MUtRLJ9FbJs_X8TziB0Y-315" value="" style="line;strokeWidth=1;fillColor=none;align=left;verticalAlign=middle;spacingTop=-1;spacingLeft=3;spacingRight=3;rotatable=0;labelPosition=right;points=[];portConstraint=eastwest;strokeColor=inherit;" parent="MUtRLJ9FbJs_X8TziB0Y-313" vertex="1">
          <mxGeometry y="26" width="360" height="8" as="geometry" />
        </mxCell>
        <mxCell id="MUtRLJ9FbJs_X8TziB0Y-316" value="+ createChessBoard(int, int): ChessBoard" style="text;strokeColor=none;fillColor=none;align=left;verticalAlign=top;spacingLeft=4;spacingRight=4;overflow=hidden;rotatable=0;points=[[0,0.5],[1,0.5]];portConstraint=eastwest;whiteSpace=wrap;html=1;" parent="MUtRLJ9FbJs_X8TziB0Y-313" vertex="1">
          <mxGeometry y="34" width="360" height="26" as="geometry" />
        </mxCell>
        <mxCell id="MUtRLJ9FbJs_X8TziB0Y-317" value="PlayerFactory" style="swimlane;fontStyle=1;align=center;verticalAlign=top;childLayout=stackLayout;horizontal=1;startSize=26;horizontalStack=0;resizeParent=1;resizeParentMax=0;resizeLast=0;collapsible=1;marginBottom=0;whiteSpace=wrap;html=1;" parent="WIyWlLk6GJQsqaUBKTNV-1" vertex="1">
          <mxGeometry x="480" y="920" width="360" height="80" as="geometry" />
        </mxCell>
        <mxCell id="MUtRLJ9FbJs_X8TziB0Y-319" value="" style="line;strokeWidth=1;fillColor=none;align=left;verticalAlign=middle;spacingTop=-1;spacingLeft=3;spacingRight=3;rotatable=0;labelPosition=right;points=[];portConstraint=eastwest;strokeColor=inherit;" parent="MUtRLJ9FbJs_X8TziB0Y-317" vertex="1">
          <mxGeometry y="26" width="360" height="8" as="geometry" />
        </mxCell>
        <mxCell id="MUtRLJ9FbJs_X8TziB0Y-320" value="+ createHumanPlayer(Team): Player&lt;br&gt;+ createComputerPlayer(Team, ComputerPlayer): Player" style="text;strokeColor=none;fillColor=none;align=left;verticalAlign=top;spacingLeft=4;spacingRight=4;overflow=hidden;rotatable=0;points=[[0,0.5],[1,0.5]];portConstraint=eastwest;whiteSpace=wrap;html=1;" parent="MUtRLJ9FbJs_X8TziB0Y-317" vertex="1">
          <mxGeometry y="34" width="360" height="46" as="geometry" />
        </mxCell>
        <mxCell id="MUtRLJ9FbJs_X8TziB0Y-321" value="Factories" style="shape=umlFrame;whiteSpace=wrap;html=1;pointerEvents=0;" parent="WIyWlLk6GJQsqaUBKTNV-1" vertex="1">
          <mxGeometry x="440" y="800" width="840" height="520" as="geometry" />
        </mxCell>
        <mxCell id="MUtRLJ9FbJs_X8TziB0Y-322" value="State" style="swimlane;fontStyle=1;align=center;verticalAlign=top;childLayout=stackLayout;horizontal=1;startSize=26;horizontalStack=0;resizeParent=1;resizeParentMax=0;resizeLast=0;collapsible=1;marginBottom=0;whiteSpace=wrap;html=1;" parent="WIyWlLk6GJQsqaUBKTNV-1" vertex="1">
          <mxGeometry x="1040" y="310" width="200" height="108" as="geometry" />
        </mxCell>
        <mxCell id="MUtRLJ9FbJs_X8TziB0Y-323" value="+ gameState: GameState&lt;br&gt;+ chessBoard: ChessBoard&lt;br&gt;+ players: Pair&amp;lt;Player, Player&amp;gt;&lt;br&gt;+ currentTeam: Team" style="text;strokeColor=none;fillColor=none;align=left;verticalAlign=top;spacingLeft=4;spacingRight=4;overflow=hidden;rotatable=0;points=[[0,0.5],[1,0.5]];portConstraint=eastwest;whiteSpace=wrap;html=1;" parent="MUtRLJ9FbJs_X8TziB0Y-322" vertex="1">
          <mxGeometry y="26" width="200" height="74" as="geometry" />
        </mxCell>
        <mxCell id="MUtRLJ9FbJs_X8TziB0Y-324" value="" style="line;strokeWidth=1;fillColor=none;align=left;verticalAlign=middle;spacingTop=-1;spacingLeft=3;spacingRight=3;rotatable=0;labelPosition=right;points=[];portConstraint=eastwest;strokeColor=inherit;" parent="MUtRLJ9FbJs_X8TziB0Y-322" vertex="1">
          <mxGeometry y="100" width="200" height="8" as="geometry" />
        </mxCell>
        <mxCell id="MUtRLJ9FbJs_X8TziB0Y-326" value="MoveInputDetails" style="swimlane;fontStyle=1;align=center;verticalAlign=top;childLayout=stackLayout;horizontal=1;startSize=26;horizontalStack=0;resizeParent=1;resizeParentMax=0;resizeLast=0;collapsible=1;marginBottom=0;whiteSpace=wrap;html=1;" parent="WIyWlLk6GJQsqaUBKTNV-1" vertex="1">
          <mxGeometry x="1040.5" y="200" width="200" height="88" as="geometry" />
        </mxCell>
        <mxCell id="MUtRLJ9FbJs_X8TziB0Y-327" value="+ fromSquareStr: string&lt;br&gt;+ toSquareStr: string&lt;br&gt;+ promotionPieceTypeStr: string?" style="text;strokeColor=none;fillColor=none;align=left;verticalAlign=top;spacingLeft=4;spacingRight=4;overflow=hidden;rotatable=0;points=[[0,0.5],[1,0.5]];portConstraint=eastwest;whiteSpace=wrap;html=1;" parent="MUtRLJ9FbJs_X8TziB0Y-326" vertex="1">
          <mxGeometry y="26" width="200" height="54" as="geometry" />
        </mxCell>
        <mxCell id="MUtRLJ9FbJs_X8TziB0Y-328" value="" style="line;strokeWidth=1;fillColor=none;align=left;verticalAlign=middle;spacingTop=-1;spacingLeft=3;spacingRight=3;rotatable=0;labelPosition=right;points=[];portConstraint=eastwest;strokeColor=inherit;" parent="MUtRLJ9FbJs_X8TziB0Y-326" vertex="1">
          <mxGeometry y="80" width="200" height="8" as="geometry" />
        </mxCell>
        <mxCell id="MUtRLJ9FbJs_X8TziB0Y-330" value="&lt;i&gt;Cloneable&lt;/i&gt;&lt;div&gt;&lt;i&gt;&amp;lt;Base, Derived&amp;gt;&lt;/i&gt;&lt;/div&gt;" style="swimlane;fontStyle=1;align=center;verticalAlign=top;childLayout=stackLayout;horizontal=1;startSize=40;horizontalStack=0;resizeParent=1;resizeParentMax=0;resizeLast=0;collapsible=1;marginBottom=0;whiteSpace=wrap;html=1;" parent="WIyWlLk6GJQsqaUBKTNV-1" vertex="1">
          <mxGeometry x="800" y="631" width="160" height="74" as="geometry" />
        </mxCell>
        <mxCell id="MUtRLJ9FbJs_X8TziB0Y-332" value="" style="line;strokeWidth=1;fillColor=none;align=left;verticalAlign=middle;spacingTop=-1;spacingLeft=3;spacingRight=3;rotatable=0;labelPosition=right;points=[];portConstraint=eastwest;strokeColor=inherit;" parent="MUtRLJ9FbJs_X8TziB0Y-330" vertex="1">
          <mxGeometry y="40" width="160" height="8" as="geometry" />
        </mxCell>
        <mxCell id="MUtRLJ9FbJs_X8TziB0Y-333" value="&lt;i&gt;+ clone(): Base&lt;/i&gt;" style="text;strokeColor=none;fillColor=none;align=left;verticalAlign=top;spacingLeft=4;spacingRight=4;overflow=hidden;rotatable=0;points=[[0,0.5],[1,0.5]];portConstraint=eastwest;whiteSpace=wrap;html=1;" parent="MUtRLJ9FbJs_X8TziB0Y-330" vertex="1">
          <mxGeometry y="48" width="160" height="26" as="geometry" />
        </mxCell>
        <mxCell id="MUtRLJ9FbJs_X8TziB0Y-339" value="&lt;i&gt;ComplicatedCloneable&lt;br&gt;&amp;lt;Clone, Base, Derived&amp;gt;&lt;/i&gt;" style="swimlane;fontStyle=1;align=center;verticalAlign=top;childLayout=stackLayout;horizontal=1;startSize=40;horizontalStack=0;resizeParent=1;resizeParentMax=0;resizeLast=0;collapsible=1;marginBottom=0;whiteSpace=wrap;html=1;" parent="WIyWlLk6GJQsqaUBKTNV-1" vertex="1">
          <mxGeometry x="1080.5" y="631" width="160" height="74" as="geometry" />
        </mxCell>
        <mxCell id="MUtRLJ9FbJs_X8TziB0Y-341" value="" style="line;strokeWidth=1;fillColor=none;align=left;verticalAlign=middle;spacingTop=-1;spacingLeft=3;spacingRight=3;rotatable=0;labelPosition=right;points=[];portConstraint=eastwest;strokeColor=inherit;" parent="MUtRLJ9FbJs_X8TziB0Y-339" vertex="1">
          <mxGeometry y="40" width="160" height="8" as="geometry" />
        </mxCell>
        <mxCell id="MUtRLJ9FbJs_X8TziB0Y-342" value="&lt;i&gt;+ clone(): Clone&lt;/i&gt;" style="text;strokeColor=none;fillColor=none;align=left;verticalAlign=top;spacingLeft=4;spacingRight=4;overflow=hidden;rotatable=0;points=[[0,0.5],[1,0.5]];portConstraint=eastwest;whiteSpace=wrap;html=1;" parent="MUtRLJ9FbJs_X8TziB0Y-339" vertex="1">
          <mxGeometry y="48" width="160" height="26" as="geometry" />
        </mxCell>
        <mxCell id="MUtRLJ9FbJs_X8TziB0Y-343" value="CRTP Cloning" style="shape=umlFrame;whiteSpace=wrap;html=1;pointerEvents=0;width=100;height=22;" parent="WIyWlLk6GJQsqaUBKTNV-1" vertex="1">
          <mxGeometry x="760" y="590" width="520" height="160" as="geometry" />
        </mxCell>
        <mxCell id="MUtRLJ9FbJs_X8TziB0Y-344" value="BoardSquare" style="swimlane;fontStyle=1;align=center;verticalAlign=top;childLayout=stackLayout;horizontal=1;startSize=26;horizontalStack=0;resizeParent=1;resizeParentMax=0;resizeLast=0;collapsible=1;marginBottom=0;whiteSpace=wrap;html=1;" parent="WIyWlLk6GJQsqaUBKTNV-1" vertex="1">
          <mxGeometry x="800" y="80" width="440" height="100" as="geometry" />
        </mxCell>
        <mxCell id="MUtRLJ9FbJs_X8TziB0Y-345" value="+ boardRow: int&lt;br&gt;+ boardCol: int" style="text;strokeColor=none;fillColor=none;align=left;verticalAlign=top;spacingLeft=4;spacingRight=4;overflow=hidden;rotatable=0;points=[[0,0.5],[1,0.5]];portConstraint=eastwest;whiteSpace=wrap;html=1;" parent="MUtRLJ9FbJs_X8TziB0Y-344" vertex="1">
          <mxGeometry y="26" width="440" height="34" as="geometry" />
        </mxCell>
        <mxCell id="MUtRLJ9FbJs_X8TziB0Y-346" value="" style="line;strokeWidth=1;fillColor=none;align=left;verticalAlign=middle;spacingTop=-1;spacingLeft=3;spacingRight=3;rotatable=0;labelPosition=right;points=[];portConstraint=eastwest;strokeColor=inherit;" parent="MUtRLJ9FbJs_X8TziB0Y-344" vertex="1">
          <mxGeometry y="60" width="440" height="8" as="geometry" />
        </mxCell>
        <mxCell id="MUtRLJ9FbJs_X8TziB0Y-347" value="+ createBoardSquare(string, int, int): BoardSquare?" style="text;strokeColor=none;fillColor=none;align=left;verticalAlign=top;spacingLeft=4;spacingRight=4;overflow=hidden;rotatable=0;points=[[0,0.5],[1,0.5]];portConstraint=eastwest;whiteSpace=wrap;html=1;" parent="MUtRLJ9FbJs_X8TziB0Y-344" vertex="1">
          <mxGeometry y="68" width="440" height="32" as="geometry" />
        </mxCell>
        <mxCell id="MUtRLJ9FbJs_X8TziB0Y-348" value="MoveDirection" style="swimlane;fontStyle=1;align=center;verticalAlign=top;childLayout=stackLayout;horizontal=1;startSize=26;horizontalStack=0;resizeParent=1;resizeParentMax=0;resizeLast=0;collapsible=1;marginBottom=0;whiteSpace=wrap;html=1;" parent="WIyWlLk6GJQsqaUBKTNV-1" vertex="1">
          <mxGeometry x="800" y="430" width="200" height="78" as="geometry" />
        </mxCell>
        <mxCell id="MUtRLJ9FbJs_X8TziB0Y-349" value="+ rowDirection: int&lt;br&gt;+ colDirection: int" style="text;strokeColor=none;fillColor=none;align=left;verticalAlign=top;spacingLeft=4;spacingRight=4;overflow=hidden;rotatable=0;points=[[0,0.5],[1,0.5]];portConstraint=eastwest;whiteSpace=wrap;html=1;" parent="MUtRLJ9FbJs_X8TziB0Y-348" vertex="1">
          <mxGeometry y="26" width="200" height="44" as="geometry" />
        </mxCell>
        <mxCell id="MUtRLJ9FbJs_X8TziB0Y-350" value="" style="line;strokeWidth=1;fillColor=none;align=left;verticalAlign=middle;spacingTop=-1;spacingLeft=3;spacingRight=3;rotatable=0;labelPosition=right;points=[];portConstraint=eastwest;strokeColor=inherit;" parent="MUtRLJ9FbJs_X8TziB0Y-348" vertex="1">
          <mxGeometry y="70" width="200" height="8" as="geometry" />
        </mxCell>
        <mxCell id="MUtRLJ9FbJs_X8TziB0Y-352" value="PieceInfo" style="swimlane;fontStyle=1;align=center;verticalAlign=top;childLayout=stackLayout;horizontal=1;startSize=26;horizontalStack=0;resizeParent=1;resizeParentMax=0;resizeLast=0;collapsible=1;marginBottom=0;whiteSpace=wrap;html=1;" parent="WIyWlLk6GJQsqaUBKTNV-1" vertex="1">
          <mxGeometry x="799.5" y="340" width="200" height="68" as="geometry" />
        </mxCell>
        <mxCell id="MUtRLJ9FbJs_X8TziB0Y-353" value="+ pieceScore: int&lt;br&gt;+ image: char32_t" style="text;strokeColor=none;fillColor=none;align=left;verticalAlign=top;spacingLeft=4;spacingRight=4;overflow=hidden;rotatable=0;points=[[0,0.5],[1,0.5]];portConstraint=eastwest;whiteSpace=wrap;html=1;" parent="MUtRLJ9FbJs_X8TziB0Y-352" vertex="1">
          <mxGeometry y="26" width="200" height="34" as="geometry" />
        </mxCell>
        <mxCell id="MUtRLJ9FbJs_X8TziB0Y-354" value="" style="line;strokeWidth=1;fillColor=none;align=left;verticalAlign=middle;spacingTop=-1;spacingLeft=3;spacingRight=3;rotatable=0;labelPosition=right;points=[];portConstraint=eastwest;strokeColor=inherit;" parent="MUtRLJ9FbJs_X8TziB0Y-352" vertex="1">
          <mxGeometry y="60" width="200" height="8" as="geometry" />
        </mxCell>
        <mxCell id="MUtRLJ9FbJs_X8TziB0Y-356" value="PieceData" style="swimlane;fontStyle=1;align=center;verticalAlign=top;childLayout=stackLayout;horizontal=1;startSize=26;horizontalStack=0;resizeParent=1;resizeParentMax=0;resizeLast=0;collapsible=1;marginBottom=0;whiteSpace=wrap;html=1;" parent="WIyWlLk6GJQsqaUBKTNV-1" vertex="1">
          <mxGeometry x="800" y="200" width="200" height="118" as="geometry" />
        </mxCell>
        <mxCell id="MUtRLJ9FbJs_X8TziB0Y-357" value="+ pieceType: PieceType&lt;br&gt;+ pieceLevel: PieceLevel&lt;br&gt;+ team: Team&lt;br&gt;+ pieceDirection: PieceDirection&lt;br&gt;+ hasMoved: bool" style="text;strokeColor=none;fillColor=none;align=left;verticalAlign=top;spacingLeft=4;spacingRight=4;overflow=hidden;rotatable=0;points=[[0,0.5],[1,0.5]];portConstraint=eastwest;whiteSpace=wrap;html=1;" parent="MUtRLJ9FbJs_X8TziB0Y-356" vertex="1">
          <mxGeometry y="26" width="200" height="84" as="geometry" />
        </mxCell>
        <mxCell id="MUtRLJ9FbJs_X8TziB0Y-358" value="" style="line;strokeWidth=1;fillColor=none;align=left;verticalAlign=middle;spacingTop=-1;spacingLeft=3;spacingRight=3;rotatable=0;labelPosition=right;points=[];portConstraint=eastwest;strokeColor=inherit;" parent="MUtRLJ9FbJs_X8TziB0Y-356" vertex="1">
          <mxGeometry y="110" width="200" height="8" as="geometry" />
        </mxCell>
        <mxCell id="MUtRLJ9FbJs_X8TziB0Y-360" value="Structs" style="shape=umlFrame;whiteSpace=wrap;html=1;pointerEvents=0;width=60;height=22;" parent="WIyWlLk6GJQsqaUBKTNV-1" vertex="1">
          <mxGeometry x="760" y="40" width="520" height="510" as="geometry" />
        </mxCell>
        <mxCell id="MUtRLJ9FbJs_X8TziB0Y-362" style="edgeStyle=orthogonalEdgeStyle;rounded=0;orthogonalLoop=1;jettySize=auto;html=1;entryX=0.5;entryY=1;entryDx=0;entryDy=0;entryPerimeter=0;endArrow=block;endFill=0;" parent="WIyWlLk6GJQsqaUBKTNV-1" source="MUtRLJ9FbJs_X8TziB0Y-70" target="MUtRLJ9FbJs_X8TziB0Y-69" edge="1">
          <mxGeometry relative="1" as="geometry" />
        </mxCell>
        <mxCell id="MUtRLJ9FbJs_X8TziB0Y-363" value="&lt;b&gt;GameState&lt;/b&gt;" style="swimlane;fontStyle=0;childLayout=stackLayout;horizontal=1;startSize=26;fillColor=none;horizontalStack=0;resizeParent=1;resizeParentMax=0;resizeLast=0;collapsible=1;marginBottom=0;whiteSpace=wrap;html=1;" parent="WIyWlLk6GJQsqaUBKTNV-1" vertex="1">
          <mxGeometry x="1400" y="80" width="160" height="80" as="geometry" />
        </mxCell>
        <mxCell id="MUtRLJ9FbJs_X8TziB0Y-364" value="MainMenu&lt;br&gt;Setup&lt;br&gt;GameActive" style="text;strokeColor=none;fillColor=none;align=left;verticalAlign=top;spacingLeft=4;spacingRight=4;overflow=hidden;rotatable=0;points=[[0,0.5],[1,0.5]];portConstraint=eastwest;whiteSpace=wrap;html=1;" parent="MUtRLJ9FbJs_X8TziB0Y-363" vertex="1">
          <mxGeometry y="26" width="160" height="54" as="geometry" />
        </mxCell>
        <mxCell id="MUtRLJ9FbJs_X8TziB0Y-367" value="&lt;b&gt;PlayerType&lt;/b&gt;" style="swimlane;fontStyle=0;childLayout=stackLayout;horizontal=1;startSize=26;fillColor=none;horizontalStack=0;resizeParent=1;resizeParentMax=0;resizeLast=0;collapsible=1;marginBottom=0;whiteSpace=wrap;html=1;" parent="WIyWlLk6GJQsqaUBKTNV-1" vertex="1">
          <mxGeometry x="1400" y="200" width="160" height="70" as="geometry" />
        </mxCell>
        <mxCell id="MUtRLJ9FbJs_X8TziB0Y-368" value="Human&lt;br&gt;Computer" style="text;strokeColor=none;fillColor=none;align=left;verticalAlign=top;spacingLeft=4;spacingRight=4;overflow=hidden;rotatable=0;points=[[0,0.5],[1,0.5]];portConstraint=eastwest;whiteSpace=wrap;html=1;" parent="MUtRLJ9FbJs_X8TziB0Y-367" vertex="1">
          <mxGeometry y="26" width="160" height="44" as="geometry" />
        </mxCell>
        <mxCell id="MUtRLJ9FbJs_X8TziB0Y-369" value="&lt;b&gt;ComputerPlayerLevel&lt;/b&gt;" style="swimlane;fontStyle=0;childLayout=stackLayout;horizontal=1;startSize=26;fillColor=none;horizontalStack=0;resizeParent=1;resizeParentMax=0;resizeLast=0;collapsible=1;marginBottom=0;whiteSpace=wrap;html=1;" parent="WIyWlLk6GJQsqaUBKTNV-1" vertex="1">
          <mxGeometry x="1400" y="310" width="160" height="110" as="geometry" />
        </mxCell>
        <mxCell id="MUtRLJ9FbJs_X8TziB0Y-370" value="One&lt;div&gt;Two&lt;/div&gt;&lt;div&gt;Three&lt;br&gt;Four&lt;br&gt;Five&lt;/div&gt;" style="text;strokeColor=none;fillColor=none;align=left;verticalAlign=top;spacingLeft=4;spacingRight=4;overflow=hidden;rotatable=0;points=[[0,0.5],[1,0.5]];portConstraint=eastwest;whiteSpace=wrap;html=1;" parent="MUtRLJ9FbJs_X8TziB0Y-369" vertex="1">
          <mxGeometry y="26" width="160" height="84" as="geometry" />
        </mxCell>
        <mxCell id="MUtRLJ9FbJs_X8TziB0Y-371" value="&lt;b&gt;PieceType&lt;/b&gt;" style="swimlane;fontStyle=0;childLayout=stackLayout;horizontal=1;startSize=26;fillColor=none;horizontalStack=0;resizeParent=1;resizeParentMax=0;resizeLast=0;collapsible=1;marginBottom=0;whiteSpace=wrap;html=1;" parent="WIyWlLk6GJQsqaUBKTNV-1" vertex="1">
          <mxGeometry x="1400" y="458" width="160" height="120" as="geometry" />
        </mxCell>
        <mxCell id="MUtRLJ9FbJs_X8TziB0Y-372" value="Bishop&lt;div&gt;King&lt;br&gt;Knight&lt;br&gt;Pawn&lt;/div&gt;&lt;div&gt;Queen&lt;br&gt;Rook&lt;/div&gt;" style="text;strokeColor=none;fillColor=none;align=left;verticalAlign=top;spacingLeft=4;spacingRight=4;overflow=hidden;rotatable=0;points=[[0,0.5],[1,0.5]];portConstraint=eastwest;whiteSpace=wrap;html=1;" parent="MUtRLJ9FbJs_X8TziB0Y-371" vertex="1">
          <mxGeometry y="26" width="160" height="94" as="geometry" />
        </mxCell>
        <mxCell id="MUtRLJ9FbJs_X8TziB0Y-373" value="&lt;b&gt;PieceLevel&lt;/b&gt;" style="swimlane;fontStyle=0;childLayout=stackLayout;horizontal=1;startSize=26;fillColor=none;horizontalStack=0;resizeParent=1;resizeParentMax=0;resizeLast=0;collapsible=1;marginBottom=0;whiteSpace=wrap;html=1;" parent="WIyWlLk6GJQsqaUBKTNV-1" vertex="1">
          <mxGeometry x="1400" y="620" width="160" height="70" as="geometry" />
        </mxCell>
        <mxCell id="MUtRLJ9FbJs_X8TziB0Y-374" value="Basic&lt;br&gt;Advanced" style="text;strokeColor=none;fillColor=none;align=left;verticalAlign=top;spacingLeft=4;spacingRight=4;overflow=hidden;rotatable=0;points=[[0,0.5],[1,0.5]];portConstraint=eastwest;whiteSpace=wrap;html=1;" parent="MUtRLJ9FbJs_X8TziB0Y-373" vertex="1">
          <mxGeometry y="26" width="160" height="44" as="geometry" />
        </mxCell>
        <mxCell id="MUtRLJ9FbJs_X8TziB0Y-375" value="&lt;b&gt;Team&lt;/b&gt;" style="swimlane;fontStyle=0;childLayout=stackLayout;horizontal=1;startSize=26;fillColor=none;horizontalStack=0;resizeParent=1;resizeParentMax=0;resizeLast=0;collapsible=1;marginBottom=0;whiteSpace=wrap;html=1;" parent="WIyWlLk6GJQsqaUBKTNV-1" vertex="1">
          <mxGeometry x="1400" y="730" width="160" height="70" as="geometry" />
        </mxCell>
        <mxCell id="MUtRLJ9FbJs_X8TziB0Y-376" value="One&lt;br&gt;Two" style="text;strokeColor=none;fillColor=none;align=left;verticalAlign=top;spacingLeft=4;spacingRight=4;overflow=hidden;rotatable=0;points=[[0,0.5],[1,0.5]];portConstraint=eastwest;whiteSpace=wrap;html=1;" parent="MUtRLJ9FbJs_X8TziB0Y-375" vertex="1">
          <mxGeometry y="26" width="160" height="44" as="geometry" />
        </mxCell>
        <mxCell id="MUtRLJ9FbJs_X8TziB0Y-377" value="&lt;b&gt;PieceDirection&lt;/b&gt;" style="swimlane;fontStyle=0;childLayout=stackLayout;horizontal=1;startSize=26;fillColor=none;horizontalStack=0;resizeParent=1;resizeParentMax=0;resizeLast=0;collapsible=1;marginBottom=0;whiteSpace=wrap;html=1;" parent="WIyWlLk6GJQsqaUBKTNV-1" vertex="1">
          <mxGeometry x="1400" y="850" width="160" height="100" as="geometry" />
        </mxCell>
        <mxCell id="MUtRLJ9FbJs_X8TziB0Y-378" value="North&lt;div&gt;South&lt;br&gt;East&lt;br&gt;West&lt;/div&gt;" style="text;strokeColor=none;fillColor=none;align=left;verticalAlign=top;spacingLeft=4;spacingRight=4;overflow=hidden;rotatable=0;points=[[0,0.5],[1,0.5]];portConstraint=eastwest;whiteSpace=wrap;html=1;" parent="MUtRLJ9FbJs_X8TziB0Y-377" vertex="1">
          <mxGeometry y="26" width="160" height="74" as="geometry" />
        </mxCell>
        <mxCell id="MUtRLJ9FbJs_X8TziB0Y-380" value="Enums" style="shape=umlFrame;whiteSpace=wrap;html=1;pointerEvents=0;width=60;height=20;" parent="WIyWlLk6GJQsqaUBKTNV-1" vertex="1">
          <mxGeometry x="1360" y="40" width="240" height="950" as="geometry" />
        </mxCell>
        <mxCell id="MUtRLJ9FbJs_X8TziB0Y-381" value="ChessBoardUtilities" style="swimlane;fontStyle=1;align=center;verticalAlign=top;childLayout=stackLayout;horizontal=1;startSize=26;horizontalStack=0;resizeParent=1;resizeParentMax=0;resizeLast=0;collapsible=1;marginBottom=0;whiteSpace=wrap;html=1;" parent="WIyWlLk6GJQsqaUBKTNV-1" vertex="1">
          <mxGeometry x="-1160" y="1190" width="320" height="110" as="geometry" />
        </mxCell>
        <mxCell id="MUtRLJ9FbJs_X8TziB0Y-383" value="" style="line;strokeWidth=1;fillColor=none;align=left;verticalAlign=middle;spacingTop=-1;spacingLeft=3;spacingRight=3;rotatable=0;labelPosition=right;points=[];portConstraint=eastwest;strokeColor=inherit;" parent="MUtRLJ9FbJs_X8TziB0Y-381" vertex="1">
          <mxGeometry y="26" width="320" height="8" as="geometry" />
        </mxCell>
        <mxCell id="MUtRLJ9FbJs_X8TziB0Y-384" value="+ isBoardInLegalSetupState(ChessBoard): bool&lt;br&gt;+ applyStandardSetup(ChessBoard, PieceLevel): bool&lt;br&gt;+ isGameOver(ChessBoard, Team): bool&lt;br&gt;+ getNumPiecesOnBoard(ChessBoard, Team): int" style="text;strokeColor=none;fillColor=none;align=left;verticalAlign=top;spacingLeft=4;spacingRight=4;overflow=hidden;rotatable=0;points=[[0,0.5],[1,0.5]];portConstraint=eastwest;whiteSpace=wrap;html=1;" parent="MUtRLJ9FbJs_X8TziB0Y-381" vertex="1">
          <mxGeometry y="34" width="320" height="76" as="geometry" />
        </mxCell>
        <mxCell id="MUtRLJ9FbJs_X8TziB0Y-389" style="edgeStyle=orthogonalEdgeStyle;rounded=0;orthogonalLoop=1;jettySize=auto;html=1;entryX=1;entryY=0.455;entryDx=0;entryDy=0;entryPerimeter=0;endArrow=block;endFill=0;" parent="WIyWlLk6GJQsqaUBKTNV-1" source="MUtRLJ9FbJs_X8TziB0Y-281" target="MUtRLJ9FbJs_X8TziB0Y-267" edge="1">
          <mxGeometry relative="1" as="geometry" />
        </mxCell>
      </root>
    </mxGraphModel>
  </diagram>
</mxfile>
